<mxfile host="app.diagrams.net" modified="2023-07-14T09:16:16.463Z" agent="Mozilla/5.0 (Windows NT 10.0; Win64; x64) AppleWebKit/537.36 (KHTML, like Gecko) Chrome/113.0.0.0 Safari/537.36 OPR/99.0.0.0" version="21.6.2" etag="h1xleDXMkM4cU-2nukM8" type="github" pages="4">
  <diagram id="tqvPq4p63vuGxOKlU2gc" name="search-communication">
    <mxGraphModel dx="1372" dy="958" grid="1" gridSize="10" guides="1" tooltips="1" connect="1" arrows="1" fold="1" page="1" pageScale="1" pageWidth="1200" pageHeight="1600" math="0" shadow="0">
      <root>
        <mxCell id="0" />
        <mxCell id="1" parent="0" />
        <mxCell id="9" value="" style="edgeStyle=none;html=1;endArrow=none;endFill=0;fontFamily=Courier New;fillColor=#ffe6cc;strokeColor=#d79b00;" parent="1" source="7" target="8" edge="1">
          <mxGeometry relative="1" as="geometry" />
        </mxCell>
        <mxCell id="13" value="" style="edgeStyle=none;html=1;endArrow=none;endFill=0;fontFamily=Courier New;fillColor=#ffe6cc;strokeColor=#d79b00;" parent="1" source="7" target="12" edge="1">
          <mxGeometry relative="1" as="geometry" />
        </mxCell>
        <mxCell id="7" value=":client" style="rounded=1;whiteSpace=wrap;html=1;fontFamily=Courier New;fillColor=#b1ddf0;strokeColor=#10739e;" parent="1" vertex="1">
          <mxGeometry x="240" y="340" width="120" height="60" as="geometry" />
        </mxCell>
        <mxCell id="11" value="" style="edgeStyle=none;html=1;endArrow=none;endFill=0;exitX=1;exitY=0.5;exitDx=0;exitDy=0;fontFamily=Courier New;fillColor=#ffe6cc;strokeColor=#d79b00;" parent="1" source="8" target="10" edge="1">
          <mxGeometry relative="1" as="geometry">
            <mxPoint x="639.9999999999998" y="370" as="sourcePoint" />
          </mxGeometry>
        </mxCell>
        <mxCell id="8" value=":TokenFactory" style="whiteSpace=wrap;html=1;rounded=1;fontFamily=Courier New;fillColor=#b1ddf0;strokeColor=#10739e;" parent="1" vertex="1">
          <mxGeometry x="480" y="340" width="120" height="60" as="geometry" />
        </mxCell>
        <mxCell id="10" value="PRF" style="whiteSpace=wrap;html=1;rounded=1;fontFamily=Courier New;fillColor=#f5f5f5;strokeColor=#666666;fontColor=#333333;" parent="1" vertex="1">
          <mxGeometry x="720" y="340" width="120" height="60" as="geometry" />
        </mxCell>
        <mxCell id="mNhKC0RYP6zVimNO45jH-27" style="edgeStyle=orthogonalEdgeStyle;rounded=0;orthogonalLoop=1;jettySize=auto;html=1;exitX=1;exitY=0.5;exitDx=0;exitDy=0;entryX=0;entryY=0.5;entryDx=0;entryDy=0;strokeColor=#D79B00;endArrow=none;endFill=0;" edge="1" parent="1" source="12" target="mNhKC0RYP6zVimNO45jH-26">
          <mxGeometry relative="1" as="geometry" />
        </mxCell>
        <mxCell id="12" value=":Server" style="whiteSpace=wrap;html=1;rounded=1;fontFamily=Courier New;fillColor=#b1ddf0;strokeColor=#10739e;" parent="1" vertex="1">
          <mxGeometry x="240" y="560" width="120" height="60" as="geometry" />
        </mxCell>
        <mxCell id="14" value="&lt;font color=&quot;#994c00&quot;&gt;1: &amp;lt;&amp;lt;create&amp;gt;&amp;gt;&lt;br&gt;2.1: get_search_t(word)&lt;/font&gt;" style="text;html=1;align=center;verticalAlign=middle;resizable=0;points=[];autosize=1;strokeColor=none;fillColor=none;fontFamily=Courier New;" parent="1" vertex="1">
          <mxGeometry x="315" y="290" width="190" height="40" as="geometry" />
        </mxCell>
        <mxCell id="16" value="" style="html=1;verticalAlign=bottom;labelBackgroundColor=none;endArrow=block;endFill=1;fontFamily=Courier New;fillColor=#ffe6cc;strokeColor=#000000;" parent="1" edge="1">
          <mxGeometry width="160" relative="1" as="geometry">
            <mxPoint x="390" y="350" as="sourcePoint" />
            <mxPoint x="410" y="350" as="targetPoint" />
          </mxGeometry>
        </mxCell>
        <mxCell id="17" value="" style="html=1;verticalAlign=bottom;labelBackgroundColor=none;endArrow=open;endFill=0;fontFamily=Courier New;fillColor=#ffe6cc;strokeColor=#000000;" parent="1" edge="1">
          <mxGeometry width="160" relative="1" as="geometry">
            <mxPoint x="314.31" y="505" as="sourcePoint" />
            <mxPoint x="314.31" y="485" as="targetPoint" />
            <Array as="points">
              <mxPoint x="314.31" y="505" />
            </Array>
          </mxGeometry>
        </mxCell>
        <mxCell id="18" value="" style="html=1;verticalAlign=bottom;labelBackgroundColor=none;endArrow=block;endFill=1;fontFamily=Courier New;fillColor=#ffe6cc;strokeColor=#000000;" parent="1" edge="1">
          <mxGeometry width="160" relative="1" as="geometry">
            <mxPoint x="660" y="350" as="sourcePoint" />
            <mxPoint x="680" y="350" as="targetPoint" />
            <Array as="points">
              <mxPoint x="670" y="350" />
            </Array>
          </mxGeometry>
        </mxCell>
        <mxCell id="19" value="" style="html=1;verticalAlign=bottom;labelBackgroundColor=none;endArrow=open;endFill=0;fontFamily=Courier New;fillColor=#ffe6cc;strokeColor=#000000;" parent="1" edge="1">
          <mxGeometry width="160" relative="1" as="geometry">
            <mxPoint x="680" y="390" as="sourcePoint" />
            <mxPoint x="660" y="390" as="targetPoint" />
          </mxGeometry>
        </mxCell>
        <mxCell id="20" value="&lt;font color=&quot;#994c00&quot;&gt;2.1.1: get_word_hashes(word, k1, k2, k3, length)&lt;/font&gt;" style="text;html=1;align=center;verticalAlign=middle;resizable=0;points=[];autosize=1;strokeColor=none;fillColor=none;fontFamily=Courier New;" parent="1" vertex="1">
          <mxGeometry x="575" y="300" width="370" height="30" as="geometry" />
        </mxCell>
        <mxCell id="21" value="&lt;font color=&quot;#3399ff&quot;&gt;2.1.2: (f_w, p_w, g_w)&lt;/font&gt;" style="text;html=1;align=center;verticalAlign=middle;resizable=0;points=[];autosize=1;strokeColor=none;fillColor=none;fontFamily=Courier New;" parent="1" vertex="1">
          <mxGeometry x="565" y="420" width="180" height="30" as="geometry" />
        </mxCell>
        <mxCell id="22" value="&lt;font color=&quot;#3399ff&quot;&gt;2.2: search_t&lt;/font&gt;" style="text;html=1;align=center;verticalAlign=middle;resizable=0;points=[];autosize=1;strokeColor=none;fillColor=none;fontFamily=Courier New;" parent="1" vertex="1">
          <mxGeometry x="355" y="400" width="120" height="30" as="geometry" />
        </mxCell>
        <mxCell id="23" value="" style="html=1;verticalAlign=bottom;labelBackgroundColor=none;endArrow=block;endFill=1;fontFamily=Courier New;fillColor=#ffe6cc;strokeColor=#000000;" parent="1" edge="1">
          <mxGeometry width="160" relative="1" as="geometry">
            <mxPoint x="290" y="485" as="sourcePoint" />
            <mxPoint x="290" y="505" as="targetPoint" />
            <Array as="points">
              <mxPoint x="290" y="495" />
            </Array>
          </mxGeometry>
        </mxCell>
        <mxCell id="24" value="&lt;font color=&quot;#3399ff&quot;&gt;3.7: relevant_files_encrypted&lt;/font&gt;" style="text;html=1;align=center;verticalAlign=middle;resizable=0;points=[];autosize=1;strokeColor=none;fillColor=none;fontFamily=Courier New;" parent="1" vertex="1">
          <mxGeometry x="335" y="520" width="230" height="30" as="geometry" />
        </mxCell>
        <mxCell id="25" value="" style="html=1;verticalAlign=bottom;labelBackgroundColor=none;endArrow=open;endFill=0;fontFamily=Courier New;fillColor=#ffe6cc;strokeColor=#000000;" parent="1" edge="1">
          <mxGeometry width="160" relative="1" as="geometry">
            <mxPoint x="410" y="390" as="sourcePoint" />
            <mxPoint x="390" y="390" as="targetPoint" />
          </mxGeometry>
        </mxCell>
        <mxCell id="26" value="&lt;font color=&quot;#994c00&quot;&gt;3.1: search(search_t)&lt;/font&gt;" style="text;html=1;align=center;verticalAlign=middle;resizable=0;points=[];autosize=1;strokeColor=none;fillColor=none;fontFamily=Courier New;" parent="1" vertex="1">
          <mxGeometry x="335" y="480" width="170" height="30" as="geometry" />
        </mxCell>
        <mxCell id="uVOGIo4eJZ9dAdOLjjk2-26" value="" style="edgeStyle=none;html=1;endArrow=none;endFill=0;fillColor=#ffe6cc;strokeColor=#D79B00;exitX=0.5;exitY=1;exitDx=0;exitDy=0;" parent="1" source="12" target="uVOGIo4eJZ9dAdOLjjk2-27" edge="1">
          <mxGeometry relative="1" as="geometry">
            <mxPoint x="170" y="420" as="sourcePoint" />
          </mxGeometry>
        </mxCell>
        <mxCell id="uVOGIo4eJZ9dAdOLjjk2-27" value="DBConnector" style="whiteSpace=wrap;html=1;fontFamily=Courier New;fillColor=#fff2cc;strokeColor=#d6b656;rounded=1;" parent="1" vertex="1">
          <mxGeometry x="240" y="730" width="120" height="60" as="geometry" />
        </mxCell>
        <mxCell id="uVOGIo4eJZ9dAdOLjjk2-29" value="&lt;font color=&quot;#994c00&quot;&gt;3.2.b: Query.get_file_paths(relevant_f_ids)&lt;/font&gt;" style="text;html=1;align=center;verticalAlign=middle;resizable=0;points=[];autosize=1;strokeColor=none;fillColor=none;fontFamily=Courier New;" parent="1" vertex="1">
          <mxGeometry x="340" y="650" width="330" height="30" as="geometry" />
        </mxCell>
        <mxCell id="uVOGIo4eJZ9dAdOLjjk2-30" value="" style="html=1;verticalAlign=bottom;labelBackgroundColor=none;endArrow=block;endFill=1;fontFamily=Courier New;fillColor=#ffe6cc;strokeColor=#000000;" parent="1" edge="1">
          <mxGeometry width="160" relative="1" as="geometry">
            <mxPoint x="290" y="690" as="sourcePoint" />
            <mxPoint x="290" y="700" as="targetPoint" />
            <Array as="points">
              <mxPoint x="290" y="680" />
            </Array>
          </mxGeometry>
        </mxCell>
        <mxCell id="uVOGIo4eJZ9dAdOLjjk2-31" value="" style="html=1;verticalAlign=bottom;labelBackgroundColor=none;endArrow=open;endFill=0;fontFamily=Courier New;fillColor=#ffe6cc;strokeColor=#000000;" parent="1" edge="1">
          <mxGeometry width="160" relative="1" as="geometry">
            <mxPoint x="314.99999999999994" y="700" as="sourcePoint" />
            <mxPoint x="314.99999999999994" y="680" as="targetPoint" />
            <Array as="points">
              <mxPoint x="315" y="700" />
            </Array>
          </mxGeometry>
        </mxCell>
        <mxCell id="uVOGIo4eJZ9dAdOLjjk2-32" value="&lt;font color=&quot;#3399ff&quot;&gt;3.4:&amp;nbsp;relevant_file_paths&lt;/font&gt;" style="text;html=1;align=center;verticalAlign=middle;resizable=0;points=[];autosize=1;strokeColor=none;fillColor=none;fontFamily=Courier New;" parent="1" vertex="1">
          <mxGeometry x="335" y="680" width="200" height="30" as="geometry" />
        </mxCell>
        <mxCell id="mNhKC0RYP6zVimNO45jH-26" value="CloudStorage" style="whiteSpace=wrap;html=1;fontFamily=Courier New;fillColor=#fff2cc;strokeColor=#d6b656;rounded=1;" vertex="1" parent="1">
          <mxGeometry x="720" y="560" width="120" height="60" as="geometry" />
        </mxCell>
        <mxCell id="mNhKC0RYP6zVimNO45jH-30" value="" style="html=1;verticalAlign=bottom;labelBackgroundColor=none;endArrow=block;endFill=1;fontFamily=Courier New;fillColor=#ffe6cc;strokeColor=#000000;" edge="1" parent="1">
          <mxGeometry width="160" relative="1" as="geometry">
            <mxPoint x="520" y="580" as="sourcePoint" />
            <mxPoint x="540" y="580" as="targetPoint" />
            <Array as="points">
              <mxPoint x="520" y="580" />
            </Array>
          </mxGeometry>
        </mxCell>
        <mxCell id="mNhKC0RYP6zVimNO45jH-31" value="" style="html=1;verticalAlign=bottom;labelBackgroundColor=none;endArrow=open;endFill=0;fontFamily=Courier New;fillColor=#ffe6cc;strokeColor=#000000;" edge="1" parent="1">
          <mxGeometry width="160" relative="1" as="geometry">
            <mxPoint x="540" y="610" as="sourcePoint" />
            <mxPoint x="520" y="610" as="targetPoint" />
            <Array as="points">
              <mxPoint x="540" y="610" />
            </Array>
          </mxGeometry>
        </mxCell>
        <mxCell id="mNhKC0RYP6zVimNO45jH-32" value="&lt;font color=&quot;#994c00&quot;&gt;3.5: read&lt;/font&gt;" style="text;html=1;align=center;verticalAlign=middle;resizable=0;points=[];autosize=1;strokeColor=none;fillColor=none;fontFamily=Courier New;" vertex="1" parent="1">
          <mxGeometry x="430" y="560" width="90" height="30" as="geometry" />
        </mxCell>
        <mxCell id="mNhKC0RYP6zVimNO45jH-33" value="&lt;font color=&quot;#3399ff&quot;&gt;3.6: encrypted_files&lt;/font&gt;" style="text;html=1;align=center;verticalAlign=middle;resizable=0;points=[];autosize=1;strokeColor=none;fillColor=none;fontFamily=Courier New;" vertex="1" parent="1">
          <mxGeometry x="430" y="610" width="170" height="30" as="geometry" />
        </mxCell>
        <mxCell id="mNhKC0RYP6zVimNO45jH-34" value="&lt;font color=&quot;#3399ff&quot;&gt;3.2.a: [relevant_f_id == None]empty list&lt;/font&gt;" style="text;html=1;align=center;verticalAlign=middle;resizable=0;points=[];autosize=1;strokeColor=none;fillColor=none;fontFamily=Courier New;" vertex="1" parent="1">
          <mxGeometry x="335" y="500" width="310" height="30" as="geometry" />
        </mxCell>
      </root>
    </mxGraphModel>
  </diagram>
  <diagram name="add-communication" id="-PIAMeH4I1Lmi4nxPiK4">
    <mxGraphModel dx="3517" dy="869" grid="1" gridSize="10" guides="1" tooltips="1" connect="1" arrows="1" fold="1" page="1" pageScale="1" pageWidth="1200" pageHeight="1600" math="0" shadow="0">
      <root>
        <mxCell id="H9XcF851H1F8ugphZj2k-0" />
        <mxCell id="H9XcF851H1F8ugphZj2k-1" parent="H9XcF851H1F8ugphZj2k-0" />
        <mxCell id="H9XcF851H1F8ugphZj2k-2" value="" style="edgeStyle=none;html=1;endArrow=none;endFill=0;fontFamily=Courier New;fillColor=#ffe6cc;strokeColor=#d79b00;" parent="H9XcF851H1F8ugphZj2k-1" source="H9XcF851H1F8ugphZj2k-4" target="H9XcF851H1F8ugphZj2k-6" edge="1">
          <mxGeometry relative="1" as="geometry" />
        </mxCell>
        <mxCell id="H9XcF851H1F8ugphZj2k-3" value="" style="edgeStyle=none;html=1;endArrow=none;endFill=0;fontFamily=Courier New;fillColor=#ffe6cc;strokeColor=#d79b00;" parent="H9XcF851H1F8ugphZj2k-1" source="H9XcF851H1F8ugphZj2k-4" target="H9XcF851H1F8ugphZj2k-8" edge="1">
          <mxGeometry relative="1" as="geometry" />
        </mxCell>
        <mxCell id="H9XcF851H1F8ugphZj2k-4" value=":client" style="rounded=1;whiteSpace=wrap;html=1;fontFamily=Courier New;fillColor=#b1ddf0;strokeColor=#10739e;" parent="H9XcF851H1F8ugphZj2k-1" vertex="1">
          <mxGeometry x="110" y="170" width="120" height="60" as="geometry" />
        </mxCell>
        <mxCell id="H9XcF851H1F8ugphZj2k-5" value="" style="edgeStyle=none;html=1;endArrow=none;endFill=0;exitX=1;exitY=0.5;exitDx=0;exitDy=0;fontFamily=Courier New;fillColor=#ffe6cc;strokeColor=#d79b00;" parent="H9XcF851H1F8ugphZj2k-1" source="H9XcF851H1F8ugphZj2k-6" target="H9XcF851H1F8ugphZj2k-7" edge="1">
          <mxGeometry relative="1" as="geometry">
            <mxPoint x="569.9999999999998" y="200" as="sourcePoint" />
          </mxGeometry>
        </mxCell>
        <mxCell id="pCRK-X4zAm-0DpOItlWn-0" value="" style="edgeStyle=none;html=1;endArrow=none;endFill=0;fillColor=#ffe6cc;strokeColor=#d79b00;entryX=0.578;entryY=0.006;entryDx=0;entryDy=0;entryPerimeter=0;exitX=0.659;exitY=1.048;exitDx=0;exitDy=0;exitPerimeter=0;" parent="H9XcF851H1F8ugphZj2k-1" source="H9XcF851H1F8ugphZj2k-6" target="pCRK-X4zAm-0DpOItlWn-1" edge="1">
          <mxGeometry relative="1" as="geometry">
            <mxPoint x="470" y="470" as="targetPoint" />
            <mxPoint x="479" y="240" as="sourcePoint" />
          </mxGeometry>
        </mxCell>
        <mxCell id="AZFJMTrBhNZ0UjOGU8Mc-2" style="edgeStyle=orthogonalEdgeStyle;rounded=0;orthogonalLoop=1;jettySize=auto;html=1;exitX=0.75;exitY=1;exitDx=0;exitDy=0;entryX=0;entryY=0.5;entryDx=0;entryDy=0;strokeColor=#D79B00;endArrow=none;endFill=0;" edge="1" parent="H9XcF851H1F8ugphZj2k-1" source="H9XcF851H1F8ugphZj2k-6" target="kB-5a1hZnnBbwYF6Fy_T-3">
          <mxGeometry relative="1" as="geometry" />
        </mxCell>
        <mxCell id="H9XcF851H1F8ugphZj2k-6" value=":TokenFactory" style="whiteSpace=wrap;html=1;rounded=1;fontFamily=Courier New;fillColor=#b1ddf0;strokeColor=#10739e;" parent="H9XcF851H1F8ugphZj2k-1" vertex="1">
          <mxGeometry x="400" y="170" width="120" height="60" as="geometry" />
        </mxCell>
        <mxCell id="H9XcF851H1F8ugphZj2k-7" value="PRF" style="whiteSpace=wrap;html=1;rounded=1;fontFamily=Courier New;fillColor=#f5f5f5;strokeColor=#666666;fontColor=#333333;" parent="H9XcF851H1F8ugphZj2k-1" vertex="1">
          <mxGeometry x="760" y="170" width="120" height="60" as="geometry" />
        </mxCell>
        <mxCell id="dQSLY3ApJIn-qsNluF-r-29" value="" style="edgeStyle=none;html=1;endArrow=none;endFill=0;fillColor=#ffe6cc;strokeColor=#d79b00;" parent="H9XcF851H1F8ugphZj2k-1" source="H9XcF851H1F8ugphZj2k-8" target="dQSLY3ApJIn-qsNluF-r-28" edge="1">
          <mxGeometry relative="1" as="geometry" />
        </mxCell>
        <mxCell id="hJ41-RpS-WTXEpGAyWOh-1" style="edgeStyle=orthogonalEdgeStyle;rounded=0;orthogonalLoop=1;jettySize=auto;html=1;exitX=0;exitY=0.5;exitDx=0;exitDy=0;entryX=1;entryY=0.5;entryDx=0;entryDy=0;strokeColor=#D79B00;endArrow=none;endFill=0;" edge="1" parent="H9XcF851H1F8ugphZj2k-1" source="H9XcF851H1F8ugphZj2k-8" target="hJ41-RpS-WTXEpGAyWOh-0">
          <mxGeometry relative="1" as="geometry" />
        </mxCell>
        <mxCell id="H9XcF851H1F8ugphZj2k-8" value=":Server" style="whiteSpace=wrap;html=1;rounded=1;fontFamily=Courier New;fillColor=#b1ddf0;strokeColor=#10739e;" parent="H9XcF851H1F8ugphZj2k-1" vertex="1">
          <mxGeometry x="-90" y="167.5" width="120" height="60" as="geometry" />
        </mxCell>
        <mxCell id="H9XcF851H1F8ugphZj2k-9" value="&lt;font color=&quot;#994c00&quot;&gt;1: &amp;lt;&amp;lt;create&amp;gt;&amp;gt;&lt;br&gt;2: get_add_t(f_id, file_path, encoded_path)&lt;/font&gt;" style="text;html=1;align=center;verticalAlign=middle;resizable=0;points=[];autosize=1;strokeColor=none;fillColor=none;fontFamily=Courier New;" parent="H9XcF851H1F8ugphZj2k-1" vertex="1">
          <mxGeometry x="150" y="100" width="330" height="40" as="geometry" />
        </mxCell>
        <mxCell id="H9XcF851H1F8ugphZj2k-10" value="" style="html=1;verticalAlign=bottom;labelBackgroundColor=none;endArrow=block;endFill=1;fontFamily=Courier New;fillColor=#ffe6cc;strokeColor=#000000;" parent="H9XcF851H1F8ugphZj2k-1" edge="1">
          <mxGeometry width="160" relative="1" as="geometry">
            <mxPoint x="320" y="190" as="sourcePoint" />
            <mxPoint x="340" y="190" as="targetPoint" />
          </mxGeometry>
        </mxCell>
        <mxCell id="H9XcF851H1F8ugphZj2k-12" value="" style="html=1;verticalAlign=bottom;labelBackgroundColor=none;endArrow=block;endFill=1;fontFamily=Courier New;fillColor=#ffe6cc;strokeColor=#000000;" parent="H9XcF851H1F8ugphZj2k-1" edge="1">
          <mxGeometry width="160" relative="1" as="geometry">
            <mxPoint x="590" y="190" as="sourcePoint" />
            <mxPoint x="610" y="190" as="targetPoint" />
            <Array as="points">
              <mxPoint x="600" y="190" />
            </Array>
          </mxGeometry>
        </mxCell>
        <mxCell id="H9XcF851H1F8ugphZj2k-13" value="" style="html=1;verticalAlign=bottom;labelBackgroundColor=none;endArrow=open;endFill=0;fontFamily=Courier New;fillColor=#ffe6cc;strokeColor=#000000;" parent="H9XcF851H1F8ugphZj2k-1" edge="1">
          <mxGeometry width="160" relative="1" as="geometry">
            <mxPoint x="610" y="210" as="sourcePoint" />
            <mxPoint x="590" y="210" as="targetPoint" />
          </mxGeometry>
        </mxCell>
        <mxCell id="H9XcF851H1F8ugphZj2k-14" value="&lt;font color=&quot;#994c00&quot;&gt;2.3.1: *[i : 1...f&lt;span style=&quot;font-size: 10px;&quot;&gt;&lt;sup&gt;_&lt;/sup&gt;&lt;/span&gt;] get_w_hashes(t&lt;sub&gt;i&lt;/sub&gt;, k1, k2, k3, length)&lt;/font&gt;" style="text;html=1;align=center;verticalAlign=middle;resizable=0;points=[];autosize=1;strokeColor=none;fillColor=none;fontFamily=Courier New;" parent="H9XcF851H1F8ugphZj2k-1" vertex="1">
          <mxGeometry x="575" y="120" width="430" height="30" as="geometry" />
        </mxCell>
        <mxCell id="H9XcF851H1F8ugphZj2k-15" value="&lt;font color=&quot;#3399ff&quot;&gt;2.3.2: (f_t, p_t, g_t)&lt;/font&gt;" style="text;html=1;align=center;verticalAlign=middle;resizable=0;points=[];autosize=1;strokeColor=none;fillColor=none;fontFamily=Courier New;" parent="H9XcF851H1F8ugphZj2k-1" vertex="1">
          <mxGeometry x="565" y="240" width="180" height="30" as="geometry" />
        </mxCell>
        <mxCell id="H9XcF851H1F8ugphZj2k-16" value="&lt;font color=&quot;#3399ff&quot;&gt;3: add_t&lt;/font&gt;" style="text;html=1;align=center;verticalAlign=middle;resizable=0;points=[];autosize=1;strokeColor=none;fillColor=none;fontFamily=Courier New;" parent="H9XcF851H1F8ugphZj2k-1" vertex="1">
          <mxGeometry x="245" y="230" width="80" height="30" as="geometry" />
        </mxCell>
        <mxCell id="H9XcF851H1F8ugphZj2k-19" value="" style="html=1;verticalAlign=bottom;labelBackgroundColor=none;endArrow=open;endFill=0;fontFamily=Courier New;fillColor=#ffe6cc;strokeColor=#000000;" parent="H9XcF851H1F8ugphZj2k-1" edge="1">
          <mxGeometry width="160" relative="1" as="geometry">
            <mxPoint x="340" y="210" as="sourcePoint" />
            <mxPoint x="320" y="210" as="targetPoint" />
          </mxGeometry>
        </mxCell>
        <mxCell id="H9XcF851H1F8ugphZj2k-20" value="&lt;font color=&quot;#994c00&quot;&gt;4: add(add_t)&lt;/font&gt;" style="text;html=1;align=center;verticalAlign=middle;resizable=0;points=[];autosize=1;strokeColor=none;fillColor=none;fontFamily=Courier New;" parent="H9XcF851H1F8ugphZj2k-1" vertex="1">
          <mxGeometry x="20" y="140" width="120" height="30" as="geometry" />
        </mxCell>
        <mxCell id="MN7aMNWnC-OGgZBPJ9DJ-1" value="" style="edgeStyle=none;html=1;endArrow=none;endFill=0;fillColor=#ffe6cc;strokeColor=#d79b00;exitX=0.403;exitY=1.035;exitDx=0;exitDy=0;exitPerimeter=0;" parent="H9XcF851H1F8ugphZj2k-1" source="pCRK-X4zAm-0DpOItlWn-1" target="MN7aMNWnC-OGgZBPJ9DJ-0" edge="1">
          <mxGeometry relative="1" as="geometry">
            <mxPoint x="460" y="690" as="sourcePoint" />
          </mxGeometry>
        </mxCell>
        <mxCell id="dQSLY3ApJIn-qsNluF-r-10" value="" style="edgeStyle=none;html=1;endArrow=none;endFill=0;fillColor=#ffe6cc;strokeColor=#d79b00;" parent="H9XcF851H1F8ugphZj2k-1" source="pCRK-X4zAm-0DpOItlWn-1" target="dQSLY3ApJIn-qsNluF-r-9" edge="1">
          <mxGeometry relative="1" as="geometry" />
        </mxCell>
        <mxCell id="pCRK-X4zAm-0DpOItlWn-1" value=":SKE" style="rounded=1;whiteSpace=wrap;html=1;fillColor=#b1ddf0;strokeColor=#10739e;" parent="H9XcF851H1F8ugphZj2k-1" vertex="1">
          <mxGeometry x="410" y="410" width="120" height="60" as="geometry" />
        </mxCell>
        <mxCell id="kB-5a1hZnnBbwYF6Fy_T-0" value="&lt;font color=&quot;#994c00&quot;&gt;2.2.1: get_file_hashes(file, k1, k2, k3, length)&lt;/font&gt;" style="text;html=1;align=center;verticalAlign=middle;resizable=0;points=[];autosize=1;strokeColor=none;fillColor=none;fontFamily=Courier New;" parent="H9XcF851H1F8ugphZj2k-1" vertex="1">
          <mxGeometry x="560" y="100" width="370" height="30" as="geometry" />
        </mxCell>
        <mxCell id="kB-5a1hZnnBbwYF6Fy_T-1" value="&lt;font color=&quot;#3399ff&quot;&gt;2.2.6: (f_f, p_f, g_f)&lt;/font&gt;" style="text;html=1;align=center;verticalAlign=middle;resizable=0;points=[];autosize=1;strokeColor=none;fillColor=none;fontFamily=Courier New;" parent="H9XcF851H1F8ugphZj2k-1" vertex="1">
          <mxGeometry x="565" y="220" width="180" height="30" as="geometry" />
        </mxCell>
        <mxCell id="kB-5a1hZnnBbwYF6Fy_T-3" value="RandOracles" style="whiteSpace=wrap;html=1;fontFamily=Courier New;fillColor=#f5f5f5;strokeColor=#666666;rounded=1;fontColor=#333333;" parent="H9XcF851H1F8ugphZj2k-1" vertex="1">
          <mxGeometry x="755" y="330" width="120" height="60" as="geometry" />
        </mxCell>
        <mxCell id="kB-5a1hZnnBbwYF6Fy_T-5" value="" style="html=1;verticalAlign=bottom;labelBackgroundColor=none;endArrow=block;endFill=1;fontFamily=Courier New;fillColor=#ffe6cc;strokeColor=#000000;" parent="H9XcF851H1F8ugphZj2k-1" edge="1">
          <mxGeometry width="160" relative="1" as="geometry">
            <mxPoint x="469.91" y="307.5" as="sourcePoint" />
            <mxPoint x="469.57000000000005" y="327.5" as="targetPoint" />
            <Array as="points">
              <mxPoint x="469.57000000000005" y="317.5" />
            </Array>
          </mxGeometry>
        </mxCell>
        <mxCell id="kB-5a1hZnnBbwYF6Fy_T-6" value="" style="html=1;verticalAlign=bottom;labelBackgroundColor=none;endArrow=open;endFill=0;fontFamily=Courier New;fillColor=#ffe6cc;strokeColor=#000000;" parent="H9XcF851H1F8ugphZj2k-1" edge="1">
          <mxGeometry width="160" relative="1" as="geometry">
            <mxPoint x="540" y="370" as="sourcePoint" />
            <mxPoint x="520" y="370" as="targetPoint" />
          </mxGeometry>
        </mxCell>
        <mxCell id="kB-5a1hZnnBbwYF6Fy_T-8" value="&lt;font color=&quot;#994c00&quot;&gt;2.4.1: get_h1_val&lt;/font&gt;" style="text;html=1;align=center;verticalAlign=middle;resizable=0;points=[];autosize=1;strokeColor=none;fillColor=none;fontFamily=Courier New;" parent="H9XcF851H1F8ugphZj2k-1" vertex="1">
          <mxGeometry x="560" y="310" width="150" height="30" as="geometry" />
        </mxCell>
        <mxCell id="kB-5a1hZnnBbwYF6Fy_T-9" value="&lt;font color=&quot;#3399ff&quot;&gt;2.4.2: h1_val&lt;/font&gt;" style="text;html=1;align=center;verticalAlign=middle;resizable=0;points=[];autosize=1;strokeColor=none;fillColor=none;fontFamily=Courier New;" parent="H9XcF851H1F8ugphZj2k-1" vertex="1">
          <mxGeometry x="570" y="367.5" width="120" height="30" as="geometry" />
        </mxCell>
        <mxCell id="kB-5a1hZnnBbwYF6Fy_T-10" value="&lt;font color=&quot;#994c00&quot;&gt;2.5.1: get_h2_val&lt;/font&gt;" style="text;html=1;align=center;verticalAlign=middle;resizable=0;points=[];autosize=1;strokeColor=none;fillColor=none;fontFamily=Courier New;" parent="H9XcF851H1F8ugphZj2k-1" vertex="1">
          <mxGeometry x="560" y="327.5" width="150" height="30" as="geometry" />
        </mxCell>
        <mxCell id="kB-5a1hZnnBbwYF6Fy_T-11" value="&lt;font color=&quot;#3399ff&quot;&gt;2.5.2: h2_val&lt;/font&gt;" style="text;html=1;align=center;verticalAlign=middle;resizable=0;points=[];autosize=1;strokeColor=none;fillColor=none;fontFamily=Courier New;" parent="H9XcF851H1F8ugphZj2k-1" vertex="1">
          <mxGeometry x="570" y="387.5" width="120" height="30" as="geometry" />
        </mxCell>
        <mxCell id="kB-5a1hZnnBbwYF6Fy_T-13" value="&lt;font color=&quot;#994c00&quot;&gt;2.6: &amp;lt;&amp;lt;create&amp;gt;&amp;gt;&lt;br&gt;2.7.1: enc_file(in_file, out_file)&lt;br&gt;&lt;/font&gt;" style="text;html=1;align=center;verticalAlign=middle;resizable=0;points=[];autosize=1;strokeColor=none;fillColor=none;fontFamily=Courier New;" parent="H9XcF851H1F8ugphZj2k-1" vertex="1">
          <mxGeometry x="210" y="275" width="270" height="40" as="geometry" />
        </mxCell>
        <mxCell id="kB-5a1hZnnBbwYF6Fy_T-14" value="" style="html=1;verticalAlign=bottom;labelBackgroundColor=none;endArrow=block;endFill=1;fontFamily=Courier New;fillColor=#ffe6cc;strokeColor=#000000;" parent="H9XcF851H1F8ugphZj2k-1" edge="1">
          <mxGeometry width="160" relative="1" as="geometry">
            <mxPoint x="519.9999999999998" y="342.07" as="sourcePoint" />
            <mxPoint x="539.9999999999998" y="342.07" as="targetPoint" />
            <Array as="points">
              <mxPoint x="530" y="342.07" />
            </Array>
          </mxGeometry>
        </mxCell>
        <mxCell id="MN7aMNWnC-OGgZBPJ9DJ-0" value="Local File System" style="whiteSpace=wrap;html=1;fillColor=#fff2cc;strokeColor=#d6b656;rounded=1;" parent="H9XcF851H1F8ugphZj2k-1" vertex="1">
          <mxGeometry x="400" y="620" width="120" height="60" as="geometry" />
        </mxCell>
        <mxCell id="MN7aMNWnC-OGgZBPJ9DJ-2" value="" style="html=1;verticalAlign=bottom;labelBackgroundColor=none;endArrow=block;endFill=1;fontFamily=Courier New;fillColor=#ffe6cc;strokeColor=#000000;" parent="H9XcF851H1F8ugphZj2k-1" edge="1">
          <mxGeometry width="160" relative="1" as="geometry">
            <mxPoint x="450" y="540" as="sourcePoint" />
            <mxPoint x="450" y="560" as="targetPoint" />
            <Array as="points">
              <mxPoint x="450" y="550" />
            </Array>
          </mxGeometry>
        </mxCell>
        <mxCell id="MN7aMNWnC-OGgZBPJ9DJ-3" value="" style="html=1;verticalAlign=bottom;labelBackgroundColor=none;endArrow=open;endFill=0;fontFamily=Courier New;fillColor=#ffe6cc;strokeColor=#000000;" parent="H9XcF851H1F8ugphZj2k-1" edge="1">
          <mxGeometry width="160" relative="1" as="geometry">
            <mxPoint x="510" y="560" as="sourcePoint" />
            <mxPoint x="509.9999999999998" y="540" as="targetPoint" />
            <Array as="points" />
          </mxGeometry>
        </mxCell>
        <mxCell id="MN7aMNWnC-OGgZBPJ9DJ-4" value="&lt;font color=&quot;#994c00&quot;&gt;2.7.9: write(enc_chunk)&lt;br&gt;&lt;/font&gt;" style="text;html=1;align=center;verticalAlign=middle;resizable=0;points=[];autosize=1;strokeColor=none;fillColor=none;fontFamily=Courier New;" parent="H9XcF851H1F8ugphZj2k-1" vertex="1">
          <mxGeometry x="260" y="540" width="190" height="30" as="geometry" />
        </mxCell>
        <mxCell id="MN7aMNWnC-OGgZBPJ9DJ-5" value="FileTools" style="whiteSpace=wrap;html=1;fillColor=#f5f5f5;strokeColor=#666666;rounded=1;fontColor=#333333;" parent="H9XcF851H1F8ugphZj2k-1" vertex="1">
          <mxGeometry x="760" y="620" width="120" height="60" as="geometry" />
        </mxCell>
        <mxCell id="MN7aMNWnC-OGgZBPJ9DJ-6" value="" style="edgeStyle=none;html=1;endArrow=none;endFill=0;fillColor=#ffe6cc;strokeColor=#d79b00;exitX=0.75;exitY=1;exitDx=0;exitDy=0;" parent="H9XcF851H1F8ugphZj2k-1" source="pCRK-X4zAm-0DpOItlWn-1" target="MN7aMNWnC-OGgZBPJ9DJ-5" edge="1">
          <mxGeometry relative="1" as="geometry">
            <mxPoint x="500" y="690" as="sourcePoint" />
            <mxPoint x="820" y="690" as="targetPoint" />
            <Array as="points">
              <mxPoint x="500" y="790" />
              <mxPoint x="790" y="790" />
              <mxPoint x="820" y="790" />
            </Array>
          </mxGeometry>
        </mxCell>
        <mxCell id="MN7aMNWnC-OGgZBPJ9DJ-8" value="" style="html=1;verticalAlign=bottom;labelBackgroundColor=none;endArrow=block;endFill=1;fontFamily=Courier New;fillColor=#ffe6cc;strokeColor=#000000;" parent="H9XcF851H1F8ugphZj2k-1" edge="1">
          <mxGeometry width="160" relative="1" as="geometry">
            <mxPoint x="490" y="540" as="sourcePoint" />
            <mxPoint x="490" y="560" as="targetPoint" />
            <Array as="points">
              <mxPoint x="490" y="550" />
            </Array>
          </mxGeometry>
        </mxCell>
        <mxCell id="dQSLY3ApJIn-qsNluF-r-0" value="&lt;font color=&quot;#994c00&quot;&gt;2.7.2: *[] chunk_reader()&lt;br&gt;&lt;/font&gt;" style="text;html=1;align=center;verticalAlign=middle;resizable=0;points=[];autosize=1;strokeColor=none;fillColor=none;fontFamily=Courier New;" parent="H9XcF851H1F8ugphZj2k-1" vertex="1">
          <mxGeometry x="565" y="550" width="200" height="30" as="geometry" />
        </mxCell>
        <mxCell id="dQSLY3ApJIn-qsNluF-r-1" value="&lt;font color=&quot;#3399ff&quot;&gt;2.7.5: plain_chunk&lt;/font&gt;" style="text;html=1;align=center;verticalAlign=middle;resizable=0;points=[];autosize=1;strokeColor=none;fillColor=none;fontFamily=Courier New;" parent="H9XcF851H1F8ugphZj2k-1" vertex="1">
          <mxGeometry x="575" y="580" width="150" height="30" as="geometry" />
        </mxCell>
        <mxCell id="dQSLY3ApJIn-qsNluF-r-3" value="" style="edgeStyle=none;orthogonalLoop=1;jettySize=auto;html=1;endArrow=none;endFill=0;exitX=1;exitY=0.5;exitDx=0;exitDy=0;fillColor=#ffe6cc;strokeColor=#d79b00;entryX=0;entryY=0.5;entryDx=0;entryDy=0;" parent="H9XcF851H1F8ugphZj2k-1" source="MN7aMNWnC-OGgZBPJ9DJ-0" target="MN7aMNWnC-OGgZBPJ9DJ-5" edge="1">
          <mxGeometry width="100" relative="1" as="geometry">
            <mxPoint x="530" y="649.58" as="sourcePoint" />
            <mxPoint x="800" y="650" as="targetPoint" />
            <Array as="points" />
          </mxGeometry>
        </mxCell>
        <mxCell id="dQSLY3ApJIn-qsNluF-r-4" value="" style="html=1;verticalAlign=bottom;labelBackgroundColor=none;endArrow=block;endFill=1;fontFamily=Courier New;fillColor=#ffe6cc;strokeColor=#000000;" parent="H9XcF851H1F8ugphZj2k-1" edge="1">
          <mxGeometry width="160" relative="1" as="geometry">
            <mxPoint x="650" y="639.17" as="sourcePoint" />
            <mxPoint x="630" y="639.17" as="targetPoint" />
            <Array as="points" />
          </mxGeometry>
        </mxCell>
        <mxCell id="dQSLY3ApJIn-qsNluF-r-5" value="" style="html=1;verticalAlign=bottom;labelBackgroundColor=none;endArrow=open;endFill=0;fontFamily=Courier New;fillColor=#ffe6cc;strokeColor=#000000;" parent="H9XcF851H1F8ugphZj2k-1" edge="1">
          <mxGeometry width="160" relative="1" as="geometry">
            <mxPoint x="629.9999999999997" y="660" as="sourcePoint" />
            <mxPoint x="650" y="660" as="targetPoint" />
            <Array as="points" />
          </mxGeometry>
        </mxCell>
        <mxCell id="dQSLY3ApJIn-qsNluF-r-6" value="&lt;font color=&quot;#994c00&quot;&gt;2.7.3: read()&lt;br&gt;&lt;/font&gt;" style="text;html=1;align=center;verticalAlign=middle;resizable=0;points=[];autosize=1;strokeColor=none;fillColor=none;fontFamily=Courier New;" parent="H9XcF851H1F8ugphZj2k-1" vertex="1">
          <mxGeometry x="645" y="620" width="120" height="30" as="geometry" />
        </mxCell>
        <mxCell id="dQSLY3ApJIn-qsNluF-r-7" value="&lt;font color=&quot;#3399ff&quot;&gt;2.7.4: text&lt;/font&gt;" style="text;html=1;align=center;verticalAlign=middle;resizable=0;points=[];autosize=1;strokeColor=none;fillColor=none;fontFamily=Courier New;" parent="H9XcF851H1F8ugphZj2k-1" vertex="1">
          <mxGeometry x="650" y="650" width="100" height="30" as="geometry" />
        </mxCell>
        <mxCell id="dQSLY3ApJIn-qsNluF-r-9" value=":Fernet" style="whiteSpace=wrap;html=1;fillColor=#b1ddf0;strokeColor=#10739e;rounded=1;" parent="H9XcF851H1F8ugphZj2k-1" vertex="1">
          <mxGeometry x="755" y="410" width="120" height="60" as="geometry" />
        </mxCell>
        <mxCell id="dQSLY3ApJIn-qsNluF-r-12" value="&lt;font color=&quot;#994c00&quot;&gt;2.7.6: &amp;lt;&amp;lt;create&amp;gt;&amp;gt;&lt;br&gt;&lt;/font&gt;" style="text;html=1;align=center;verticalAlign=middle;resizable=0;points=[];autosize=1;strokeColor=none;fillColor=none;fontFamily=Courier New;" parent="H9XcF851H1F8ugphZj2k-1" vertex="1">
          <mxGeometry x="575" y="450" width="150" height="30" as="geometry" />
        </mxCell>
        <mxCell id="dQSLY3ApJIn-qsNluF-r-13" value="&lt;font color=&quot;#994c00&quot;&gt;2.7.7: encode(plain_chunk)&lt;br&gt;&lt;/font&gt;" style="text;html=1;align=center;verticalAlign=middle;resizable=0;points=[];autosize=1;strokeColor=none;fillColor=none;fontFamily=Courier New;" parent="H9XcF851H1F8ugphZj2k-1" vertex="1">
          <mxGeometry x="560" y="480" width="210" height="30" as="geometry" />
        </mxCell>
        <mxCell id="dQSLY3ApJIn-qsNluF-r-15" value="&lt;font color=&quot;#994c00&quot;&gt;2.7.8: enc_chunk&lt;br&gt;&lt;/font&gt;" style="text;html=1;align=center;verticalAlign=middle;resizable=0;points=[];autosize=1;strokeColor=none;fillColor=none;fontFamily=Courier New;" parent="H9XcF851H1F8ugphZj2k-1" vertex="1">
          <mxGeometry x="575" y="520" width="140" height="30" as="geometry" />
        </mxCell>
        <mxCell id="dQSLY3ApJIn-qsNluF-r-20" value="" style="edgeStyle=none;orthogonalLoop=1;jettySize=auto;html=1;endArrow=none;endFill=0;exitX=1;exitY=0.5;exitDx=0;exitDy=0;fillColor=#ffe6cc;strokeColor=#d79b00;" parent="H9XcF851H1F8ugphZj2k-1" source="H9XcF851H1F8ugphZj2k-7" edge="1">
          <mxGeometry width="100" relative="1" as="geometry">
            <mxPoint x="880" as="sourcePoint" />
            <mxPoint x="880" y="650" as="targetPoint" />
            <Array as="points">
              <mxPoint x="970" y="200" />
              <mxPoint x="970" y="650" />
            </Array>
          </mxGeometry>
        </mxCell>
        <mxCell id="dQSLY3ApJIn-qsNluF-r-23" value="" style="html=1;verticalAlign=bottom;labelBackgroundColor=none;endArrow=open;endFill=0;fontFamily=Courier New;fillColor=#ffe6cc;strokeColor=#000000;" parent="H9XcF851H1F8ugphZj2k-1" edge="1">
          <mxGeometry width="160" relative="1" as="geometry">
            <mxPoint x="570" y="450" as="sourcePoint" />
            <mxPoint x="550.33" y="450" as="targetPoint" />
            <Array as="points" />
          </mxGeometry>
        </mxCell>
        <mxCell id="dQSLY3ApJIn-qsNluF-r-24" value="&lt;font color=&quot;#994c00&quot;&gt;2.2.2: *[] chunk_reader()&lt;br&gt;&lt;/font&gt;" style="text;html=1;align=center;verticalAlign=middle;resizable=0;points=[];autosize=1;strokeColor=none;fillColor=none;fontFamily=Courier New;" parent="H9XcF851H1F8ugphZj2k-1" vertex="1">
          <mxGeometry x="775" y="260" width="200" height="30" as="geometry" />
        </mxCell>
        <mxCell id="dQSLY3ApJIn-qsNluF-r-25" value="&lt;font color=&quot;#3399ff&quot;&gt;2.2.5: plain_chunk&lt;/font&gt;" style="text;html=1;align=center;verticalAlign=middle;resizable=0;points=[];autosize=1;strokeColor=none;fillColor=none;fontFamily=Courier New;" parent="H9XcF851H1F8ugphZj2k-1" vertex="1">
          <mxGeometry x="775" y="280" width="150" height="30" as="geometry" />
        </mxCell>
        <mxCell id="dQSLY3ApJIn-qsNluF-r-28" value="CloudStorage" style="whiteSpace=wrap;html=1;fontFamily=Courier New;fillColor=#fff2cc;strokeColor=#d6b656;rounded=1;" parent="H9XcF851H1F8ugphZj2k-1" vertex="1">
          <mxGeometry x="-90" y="307.5" width="120" height="60" as="geometry" />
        </mxCell>
        <mxCell id="dQSLY3ApJIn-qsNluF-r-30" value="" style="html=1;verticalAlign=bottom;labelBackgroundColor=none;endArrow=block;endFill=1;fontFamily=Courier New;fillColor=#ffe6cc;strokeColor=#000000;" parent="H9XcF851H1F8ugphZj2k-1" edge="1">
          <mxGeometry width="160" relative="1" as="geometry">
            <mxPoint x="-40" y="267.5" as="sourcePoint" />
            <mxPoint x="-40" y="287.5" as="targetPoint" />
            <Array as="points">
              <mxPoint x="-40" y="277.5" />
            </Array>
          </mxGeometry>
        </mxCell>
        <mxCell id="dQSLY3ApJIn-qsNluF-r-31" value="&lt;font color=&quot;#994c00&quot;&gt;5.a: write(encrypted_file)&lt;/font&gt;" style="text;html=1;align=center;verticalAlign=middle;resizable=0;points=[];autosize=1;strokeColor=none;fillColor=none;fontFamily=Courier New;" parent="H9XcF851H1F8ugphZj2k-1" vertex="1">
          <mxGeometry x="-20" y="257.5" width="210" height="30" as="geometry" />
        </mxCell>
        <mxCell id="dQSLY3ApJIn-qsNluF-r-36" value="" style="html=1;verticalAlign=bottom;labelBackgroundColor=none;endArrow=open;endFill=0;fontFamily=Courier New;fillColor=#ffe6cc;strokeColor=#000000;" parent="H9XcF851H1F8ugphZj2k-1" edge="1">
          <mxGeometry width="160" relative="1" as="geometry">
            <mxPoint x="935" y="210" as="sourcePoint" />
            <mxPoint x="915" y="210" as="targetPoint" />
          </mxGeometry>
        </mxCell>
        <mxCell id="dQSLY3ApJIn-qsNluF-r-37" value="" style="html=1;verticalAlign=bottom;labelBackgroundColor=none;endArrow=block;endFill=1;fontFamily=Courier New;fillColor=#ffe6cc;strokeColor=#000000;" parent="H9XcF851H1F8ugphZj2k-1" edge="1">
          <mxGeometry width="160" relative="1" as="geometry">
            <mxPoint x="915" y="190" as="sourcePoint" />
            <mxPoint x="935" y="190" as="targetPoint" />
            <Array as="points">
              <mxPoint x="925" y="190" />
            </Array>
          </mxGeometry>
        </mxCell>
        <mxCell id="SZhdlNjlCkw3uKPmpG7h-6" value="" style="edgeStyle=none;orthogonalLoop=1;jettySize=auto;html=1;exitX=0.75;exitY=0;exitDx=0;exitDy=0;endArrow=none;endFill=0;fillColor=#ffe6cc;strokeColor=#d79b00;entryX=1;entryY=0.75;entryDx=0;entryDy=0;" parent="H9XcF851H1F8ugphZj2k-1" source="H9XcF851H1F8ugphZj2k-6" target="MN7aMNWnC-OGgZBPJ9DJ-5" edge="1">
          <mxGeometry width="100" relative="1" as="geometry">
            <mxPoint x="330" y="50" as="sourcePoint" />
            <mxPoint x="1060" y="860" as="targetPoint" />
            <Array as="points">
              <mxPoint x="490" y="80" />
              <mxPoint x="1070" y="80" />
              <mxPoint x="1070" y="665" />
            </Array>
          </mxGeometry>
        </mxCell>
        <mxCell id="SZhdlNjlCkw3uKPmpG7h-8" value="&lt;font color=&quot;#994c00&quot;&gt;2.1.1: tokenize_text_file(file_path)&lt;br&gt;&lt;/font&gt;" style="text;html=1;align=center;verticalAlign=middle;resizable=0;points=[];autosize=1;strokeColor=none;fillColor=none;fontFamily=Courier New;" parent="H9XcF851H1F8ugphZj2k-1" vertex="1">
          <mxGeometry x="570" y="20" width="280" height="30" as="geometry" />
        </mxCell>
        <mxCell id="SZhdlNjlCkw3uKPmpG7h-9" value="&lt;font color=&quot;#3399ff&quot;&gt;2.1.3: file_tokens&lt;/font&gt;" style="text;html=1;align=center;verticalAlign=middle;resizable=0;points=[];autosize=1;strokeColor=none;fillColor=none;fontFamily=Courier New;" parent="H9XcF851H1F8ugphZj2k-1" vertex="1">
          <mxGeometry x="570" y="40" width="150" height="30" as="geometry" />
        </mxCell>
        <mxCell id="SZhdlNjlCkw3uKPmpG7h-10" value="" style="html=1;verticalAlign=bottom;labelBackgroundColor=none;endArrow=block;endFill=1;fontFamily=Courier New;fillColor=#ffe6cc;strokeColor=#000000;" parent="H9XcF851H1F8ugphZj2k-1" edge="1">
          <mxGeometry width="160" relative="1" as="geometry">
            <mxPoint x="520" y="70" as="sourcePoint" />
            <mxPoint x="540" y="70" as="targetPoint" />
            <Array as="points">
              <mxPoint x="530" y="70" />
            </Array>
          </mxGeometry>
        </mxCell>
        <mxCell id="SZhdlNjlCkw3uKPmpG7h-11" value="" style="html=1;verticalAlign=bottom;labelBackgroundColor=none;endArrow=open;endFill=0;fontFamily=Courier New;fillColor=#ffe6cc;strokeColor=#000000;" parent="H9XcF851H1F8ugphZj2k-1" edge="1">
          <mxGeometry width="160" relative="1" as="geometry">
            <mxPoint x="540" y="90" as="sourcePoint" />
            <mxPoint x="520" y="90" as="targetPoint" />
          </mxGeometry>
        </mxCell>
        <mxCell id="DluI9A3CKFZ-05KdVA1H-0" value="" style="edgeStyle=segmentEdgeStyle;endArrow=classic;html=1;curved=0;rounded=0;endSize=8;startSize=8;sourcePerimeterSpacing=0;targetPerimeterSpacing=0;entryX=1;entryY=1;entryDx=0;entryDy=0;" parent="H9XcF851H1F8ugphZj2k-1" target="MN7aMNWnC-OGgZBPJ9DJ-5" edge="1">
          <mxGeometry width="100" relative="1" as="geometry">
            <mxPoint x="830" y="680" as="sourcePoint" />
            <mxPoint x="880" y="720" as="targetPoint" />
            <Array as="points">
              <mxPoint x="830" y="720" />
              <mxPoint x="880" y="720" />
            </Array>
          </mxGeometry>
        </mxCell>
        <mxCell id="DluI9A3CKFZ-05KdVA1H-1" value="2.1.2: chunk_reader( )" style="text;html=1;align=center;verticalAlign=middle;resizable=0;points=[];autosize=1;strokeColor=none;fillColor=none;" parent="H9XcF851H1F8ugphZj2k-1" vertex="1">
          <mxGeometry x="790" y="725" width="140" height="30" as="geometry" />
        </mxCell>
        <mxCell id="DluI9A3CKFZ-05KdVA1H-2" value="&lt;font color=&quot;#994c00&quot;&gt;2.2.3: read()&lt;br&gt;&lt;/font&gt;" style="text;html=1;align=center;verticalAlign=middle;resizable=0;points=[];autosize=1;strokeColor=none;fillColor=none;fontFamily=Courier New;" parent="H9XcF851H1F8ugphZj2k-1" vertex="1">
          <mxGeometry x="520" y="620" width="120" height="30" as="geometry" />
        </mxCell>
        <mxCell id="DluI9A3CKFZ-05KdVA1H-4" value="&lt;font color=&quot;#3399ff&quot;&gt;2.2.4: text&lt;/font&gt;" style="text;html=1;align=center;verticalAlign=middle;resizable=0;points=[];autosize=1;strokeColor=none;fillColor=none;fontFamily=Courier New;" parent="H9XcF851H1F8ugphZj2k-1" vertex="1">
          <mxGeometry x="520" y="650" width="100" height="30" as="geometry" />
        </mxCell>
        <mxCell id="hJ41-RpS-WTXEpGAyWOh-0" value="DBConnector" style="whiteSpace=wrap;html=1;fontFamily=Courier New;fillColor=#fff2cc;strokeColor=#d6b656;rounded=1;" vertex="1" parent="H9XcF851H1F8ugphZj2k-1">
          <mxGeometry x="-330" y="167.5" width="120" height="60" as="geometry" />
        </mxCell>
        <mxCell id="hJ41-RpS-WTXEpGAyWOh-2" value="&lt;font color=&quot;#994c00&quot;&gt;5.b: insert(f_id, file_path)&lt;/font&gt;" style="text;html=1;align=center;verticalAlign=middle;resizable=0;points=[];autosize=1;strokeColor=none;fillColor=none;fontFamily=Courier New;" vertex="1" parent="H9XcF851H1F8ugphZj2k-1">
          <mxGeometry x="-265" y="137.5" width="230" height="30" as="geometry" />
        </mxCell>
        <mxCell id="hJ41-RpS-WTXEpGAyWOh-3" value="" style="html=1;verticalAlign=bottom;labelBackgroundColor=none;endArrow=block;endFill=1;fontFamily=Courier New;fillColor=#ffe6cc;strokeColor=#000000;" edge="1" parent="H9XcF851H1F8ugphZj2k-1">
          <mxGeometry width="160" relative="1" as="geometry">
            <mxPoint x="-150" y="207.5" as="sourcePoint" />
            <mxPoint x="-170" y="207.5" as="targetPoint" />
            <Array as="points">
              <mxPoint x="-150" y="207.5" />
            </Array>
          </mxGeometry>
        </mxCell>
        <mxCell id="AZFJMTrBhNZ0UjOGU8Mc-0" value="" style="html=1;verticalAlign=bottom;labelBackgroundColor=none;endArrow=block;endFill=1;fontFamily=Courier New;fillColor=#ffe6cc;strokeColor=#000000;" edge="1" parent="H9XcF851H1F8ugphZj2k-1">
          <mxGeometry width="160" relative="1" as="geometry">
            <mxPoint x="80" y="210" as="sourcePoint" />
            <mxPoint x="60" y="210" as="targetPoint" />
            <Array as="points">
              <mxPoint x="80" y="210" />
            </Array>
          </mxGeometry>
        </mxCell>
      </root>
    </mxGraphModel>
  </diagram>
  <diagram name="delete-communication" id="juhmZloxiUgRsARfMHx-">
    <mxGraphModel dx="2572" dy="958" grid="1" gridSize="10" guides="1" tooltips="1" connect="1" arrows="1" fold="1" page="1" pageScale="1" pageWidth="1200" pageHeight="1600" math="0" shadow="0">
      <root>
        <mxCell id="NkeJhz0N6dfDDhDFCLCe-0" />
        <mxCell id="NkeJhz0N6dfDDhDFCLCe-1" parent="NkeJhz0N6dfDDhDFCLCe-0" />
        <mxCell id="NkeJhz0N6dfDDhDFCLCe-2" value="" style="edgeStyle=none;html=1;endArrow=none;endFill=0;fontFamily=Courier New;fillColor=#ffe6cc;strokeColor=#d79b00;" parent="NkeJhz0N6dfDDhDFCLCe-1" source="NkeJhz0N6dfDDhDFCLCe-4" target="NkeJhz0N6dfDDhDFCLCe-7" edge="1">
          <mxGeometry relative="1" as="geometry" />
        </mxCell>
        <mxCell id="NkeJhz0N6dfDDhDFCLCe-3" value="" style="edgeStyle=none;html=1;endArrow=none;endFill=0;fontFamily=Courier New;fillColor=#ffe6cc;strokeColor=#d79b00;" parent="NkeJhz0N6dfDDhDFCLCe-1" source="NkeJhz0N6dfDDhDFCLCe-4" target="NkeJhz0N6dfDDhDFCLCe-10" edge="1">
          <mxGeometry relative="1" as="geometry" />
        </mxCell>
        <mxCell id="NkeJhz0N6dfDDhDFCLCe-4" value=":client" style="rounded=1;whiteSpace=wrap;html=1;fontFamily=Courier New;fillColor=#b1ddf0;strokeColor=#10739e;" parent="NkeJhz0N6dfDDhDFCLCe-1" vertex="1">
          <mxGeometry x="110" y="170" width="120" height="60" as="geometry" />
        </mxCell>
        <mxCell id="NkeJhz0N6dfDDhDFCLCe-5" value="" style="edgeStyle=none;html=1;endArrow=none;endFill=0;exitX=1;exitY=0.5;exitDx=0;exitDy=0;fontFamily=Courier New;fillColor=#ffe6cc;strokeColor=#d79b00;" parent="NkeJhz0N6dfDDhDFCLCe-1" source="NkeJhz0N6dfDDhDFCLCe-7" target="NkeJhz0N6dfDDhDFCLCe-8" edge="1">
          <mxGeometry relative="1" as="geometry">
            <mxPoint x="569.9999999999998" y="200" as="sourcePoint" />
          </mxGeometry>
        </mxCell>
        <mxCell id="NkeJhz0N6dfDDhDFCLCe-7" value=":TokenFactory" style="whiteSpace=wrap;html=1;rounded=1;fontFamily=Courier New;fillColor=#b1ddf0;strokeColor=#10739e;" parent="NkeJhz0N6dfDDhDFCLCe-1" vertex="1">
          <mxGeometry x="400" y="170" width="120" height="60" as="geometry" />
        </mxCell>
        <mxCell id="NkeJhz0N6dfDDhDFCLCe-8" value="PRF" style="whiteSpace=wrap;html=1;rounded=1;fontFamily=Courier New;fillColor=#f5f5f5;strokeColor=#666666;fontColor=#333333;" parent="NkeJhz0N6dfDDhDFCLCe-1" vertex="1">
          <mxGeometry x="760" y="170" width="120" height="60" as="geometry" />
        </mxCell>
        <mxCell id="NkeJhz0N6dfDDhDFCLCe-9" value="" style="edgeStyle=none;html=1;endArrow=none;endFill=0;fillColor=#ffe6cc;strokeColor=#d79b00;" parent="NkeJhz0N6dfDDhDFCLCe-1" source="NkeJhz0N6dfDDhDFCLCe-10" target="NkeJhz0N6dfDDhDFCLCe-59" edge="1">
          <mxGeometry relative="1" as="geometry" />
        </mxCell>
        <mxCell id="aw6GEAvUuq752rBPNBOO-0" value="" style="edgeStyle=orthogonalEdgeStyle;rounded=0;orthogonalLoop=1;jettySize=auto;html=1;endArrow=none;endFill=0;strokeColor=#D79B00;" edge="1" parent="NkeJhz0N6dfDDhDFCLCe-1" source="NkeJhz0N6dfDDhDFCLCe-10" target="6V2IJUkuNfI9JMHAixac-0">
          <mxGeometry relative="1" as="geometry" />
        </mxCell>
        <mxCell id="NkeJhz0N6dfDDhDFCLCe-10" value=":Server" style="whiteSpace=wrap;html=1;rounded=1;fontFamily=Courier New;fillColor=#b1ddf0;strokeColor=#10739e;" parent="NkeJhz0N6dfDDhDFCLCe-1" vertex="1">
          <mxGeometry x="110" y="360" width="120" height="60" as="geometry" />
        </mxCell>
        <mxCell id="NkeJhz0N6dfDDhDFCLCe-11" value="&lt;font color=&quot;#994c00&quot;&gt;1: &amp;lt;&amp;lt;create&amp;gt;&amp;gt;&lt;br&gt;2: get_del_t(f_id, file_path)&lt;/font&gt;" style="text;html=1;align=center;verticalAlign=middle;resizable=0;points=[];autosize=1;strokeColor=none;fillColor=none;fontFamily=Courier New;" parent="NkeJhz0N6dfDDhDFCLCe-1" vertex="1">
          <mxGeometry x="200" y="100" width="230" height="40" as="geometry" />
        </mxCell>
        <mxCell id="NkeJhz0N6dfDDhDFCLCe-12" value="" style="html=1;verticalAlign=bottom;labelBackgroundColor=none;endArrow=block;endFill=1;fontFamily=Courier New;fillColor=#ffe6cc;strokeColor=#000000;" parent="NkeJhz0N6dfDDhDFCLCe-1" edge="1">
          <mxGeometry width="160" relative="1" as="geometry">
            <mxPoint x="320" y="190" as="sourcePoint" />
            <mxPoint x="340" y="190" as="targetPoint" />
          </mxGeometry>
        </mxCell>
        <mxCell id="NkeJhz0N6dfDDhDFCLCe-13" value="" style="html=1;verticalAlign=bottom;labelBackgroundColor=none;endArrow=block;endFill=1;fontFamily=Courier New;fillColor=#ffe6cc;strokeColor=#000000;" parent="NkeJhz0N6dfDDhDFCLCe-1" edge="1">
          <mxGeometry width="160" relative="1" as="geometry">
            <mxPoint x="590" y="190" as="sourcePoint" />
            <mxPoint x="610" y="190" as="targetPoint" />
            <Array as="points">
              <mxPoint x="600" y="190" />
            </Array>
          </mxGeometry>
        </mxCell>
        <mxCell id="NkeJhz0N6dfDDhDFCLCe-14" value="" style="html=1;verticalAlign=bottom;labelBackgroundColor=none;endArrow=open;endFill=0;fontFamily=Courier New;fillColor=#ffe6cc;strokeColor=#000000;" parent="NkeJhz0N6dfDDhDFCLCe-1" edge="1">
          <mxGeometry width="160" relative="1" as="geometry">
            <mxPoint x="610" y="210" as="sourcePoint" />
            <mxPoint x="590" y="210" as="targetPoint" />
          </mxGeometry>
        </mxCell>
        <mxCell id="NkeJhz0N6dfDDhDFCLCe-17" value="&lt;font color=&quot;#3399ff&quot;&gt;5: del_t&lt;/font&gt;" style="text;html=1;align=center;verticalAlign=middle;resizable=0;points=[];autosize=1;strokeColor=none;fillColor=none;fontFamily=Courier New;" parent="NkeJhz0N6dfDDhDFCLCe-1" vertex="1">
          <mxGeometry x="245" y="230" width="80" height="30" as="geometry" />
        </mxCell>
        <mxCell id="NkeJhz0N6dfDDhDFCLCe-18" value="" style="html=1;verticalAlign=bottom;labelBackgroundColor=none;endArrow=block;endFill=1;fontFamily=Courier New;fillColor=#ffe6cc;strokeColor=#000000;" parent="NkeJhz0N6dfDDhDFCLCe-1" edge="1">
          <mxGeometry width="160" relative="1" as="geometry">
            <mxPoint x="160" y="310" as="sourcePoint" />
            <mxPoint x="160" y="330" as="targetPoint" />
            <Array as="points">
              <mxPoint x="160" y="320" />
            </Array>
          </mxGeometry>
        </mxCell>
        <mxCell id="NkeJhz0N6dfDDhDFCLCe-19" value="" style="html=1;verticalAlign=bottom;labelBackgroundColor=none;endArrow=open;endFill=0;fontFamily=Courier New;fillColor=#ffe6cc;strokeColor=#000000;" parent="NkeJhz0N6dfDDhDFCLCe-1" edge="1">
          <mxGeometry width="160" relative="1" as="geometry">
            <mxPoint x="340" y="210" as="sourcePoint" />
            <mxPoint x="320" y="210" as="targetPoint" />
          </mxGeometry>
        </mxCell>
        <mxCell id="NkeJhz0N6dfDDhDFCLCe-20" value="&lt;font color=&quot;#994c00&quot;&gt;6: delelet(del_t)&lt;/font&gt;" style="text;html=1;align=center;verticalAlign=middle;resizable=0;points=[];autosize=1;strokeColor=none;fillColor=none;fontFamily=Courier New;" parent="NkeJhz0N6dfDDhDFCLCe-1" vertex="1">
          <mxGeometry x="190" y="310" width="150" height="30" as="geometry" />
        </mxCell>
        <mxCell id="NkeJhz0N6dfDDhDFCLCe-24" value="&lt;font color=&quot;#994c00&quot;&gt;2.1.1: get_file_hashes(file, k1, k2, k3, length)&lt;/font&gt;" style="text;html=1;align=center;verticalAlign=middle;resizable=0;points=[];autosize=1;strokeColor=none;fillColor=none;fontFamily=Courier New;" parent="NkeJhz0N6dfDDhDFCLCe-1" vertex="1">
          <mxGeometry x="575" y="100" width="370" height="30" as="geometry" />
        </mxCell>
        <mxCell id="NkeJhz0N6dfDDhDFCLCe-25" value="&lt;font color=&quot;#3399ff&quot;&gt;2.1.6: (f_f, p_f, g_f)&lt;/font&gt;" style="text;html=1;align=center;verticalAlign=middle;resizable=0;points=[];autosize=1;strokeColor=none;fillColor=none;fontFamily=Courier New;" parent="NkeJhz0N6dfDDhDFCLCe-1" vertex="1">
          <mxGeometry x="565" y="220" width="180" height="30" as="geometry" />
        </mxCell>
        <mxCell id="NkeJhz0N6dfDDhDFCLCe-40" value="FileTools" style="whiteSpace=wrap;html=1;fillColor=#f5f5f5;strokeColor=#666666;rounded=1;fontColor=#333333;" parent="NkeJhz0N6dfDDhDFCLCe-1" vertex="1">
          <mxGeometry x="760" y="360" width="120" height="60" as="geometry" />
        </mxCell>
        <mxCell id="NkeJhz0N6dfDDhDFCLCe-45" value="" style="edgeStyle=none;orthogonalLoop=1;jettySize=auto;html=1;endArrow=none;endFill=0;exitX=1;exitY=0.5;exitDx=0;exitDy=0;fillColor=#ffe6cc;strokeColor=#d79b00;entryX=0;entryY=0.5;entryDx=0;entryDy=0;" parent="NkeJhz0N6dfDDhDFCLCe-1" target="NkeJhz0N6dfDDhDFCLCe-40" edge="1">
          <mxGeometry width="100" relative="1" as="geometry">
            <mxPoint x="520" y="390" as="sourcePoint" />
            <mxPoint x="800" y="390" as="targetPoint" />
            <Array as="points" />
          </mxGeometry>
        </mxCell>
        <mxCell id="NkeJhz0N6dfDDhDFCLCe-46" value="" style="html=1;verticalAlign=bottom;labelBackgroundColor=none;endArrow=block;endFill=1;fontFamily=Courier New;fillColor=#ffe6cc;strokeColor=#000000;" parent="NkeJhz0N6dfDDhDFCLCe-1" edge="1">
          <mxGeometry width="160" relative="1" as="geometry">
            <mxPoint x="650" y="379.16999999999996" as="sourcePoint" />
            <mxPoint x="630" y="379.16999999999996" as="targetPoint" />
            <Array as="points" />
          </mxGeometry>
        </mxCell>
        <mxCell id="NkeJhz0N6dfDDhDFCLCe-47" value="" style="html=1;verticalAlign=bottom;labelBackgroundColor=none;endArrow=open;endFill=0;fontFamily=Courier New;fillColor=#ffe6cc;strokeColor=#000000;" parent="NkeJhz0N6dfDDhDFCLCe-1" edge="1">
          <mxGeometry width="160" relative="1" as="geometry">
            <mxPoint x="629.9999999999997" y="400" as="sourcePoint" />
            <mxPoint x="650" y="400" as="targetPoint" />
            <Array as="points" />
          </mxGeometry>
        </mxCell>
        <mxCell id="NkeJhz0N6dfDDhDFCLCe-48" value="&lt;font color=&quot;#994c00&quot;&gt;2.1.3: read()&lt;br&gt;&lt;/font&gt;" style="text;html=1;align=center;verticalAlign=middle;resizable=0;points=[];autosize=1;strokeColor=none;fillColor=none;fontFamily=Courier New;" parent="NkeJhz0N6dfDDhDFCLCe-1" vertex="1">
          <mxGeometry x="645" y="360" width="120" height="30" as="geometry" />
        </mxCell>
        <mxCell id="NkeJhz0N6dfDDhDFCLCe-49" value="&lt;font color=&quot;#3399ff&quot;&gt;2.1.4: text&lt;/font&gt;" style="text;html=1;align=center;verticalAlign=middle;resizable=0;points=[];autosize=1;strokeColor=none;fillColor=none;fontFamily=Courier New;" parent="NkeJhz0N6dfDDhDFCLCe-1" vertex="1">
          <mxGeometry x="650" y="390" width="100" height="30" as="geometry" />
        </mxCell>
        <mxCell id="NkeJhz0N6dfDDhDFCLCe-54" value="" style="edgeStyle=none;orthogonalLoop=1;jettySize=auto;html=1;endArrow=none;endFill=0;exitX=1;exitY=0.5;exitDx=0;exitDy=0;entryX=1;entryY=0.5;entryDx=0;entryDy=0;fillColor=#ffe6cc;strokeColor=#d79b00;" parent="NkeJhz0N6dfDDhDFCLCe-1" source="NkeJhz0N6dfDDhDFCLCe-8" target="NkeJhz0N6dfDDhDFCLCe-40" edge="1">
          <mxGeometry width="100" relative="1" as="geometry">
            <mxPoint x="890" y="210" as="sourcePoint" />
            <mxPoint x="970" y="850" as="targetPoint" />
            <Array as="points">
              <mxPoint x="970" y="200" />
              <mxPoint x="970" y="390" />
            </Array>
          </mxGeometry>
        </mxCell>
        <mxCell id="NkeJhz0N6dfDDhDFCLCe-57" value="&lt;font color=&quot;#994c00&quot;&gt;2.1.2: *[] chunk_reader()&lt;br&gt;&lt;/font&gt;" style="text;html=1;align=center;verticalAlign=middle;resizable=0;points=[];autosize=1;strokeColor=none;fillColor=none;fontFamily=Courier New;" parent="NkeJhz0N6dfDDhDFCLCe-1" vertex="1">
          <mxGeometry x="775" y="260" width="200" height="30" as="geometry" />
        </mxCell>
        <mxCell id="NkeJhz0N6dfDDhDFCLCe-58" value="&lt;font color=&quot;#3399ff&quot;&gt;2.1.5: plain_chunk&lt;/font&gt;" style="text;html=1;align=center;verticalAlign=middle;resizable=0;points=[];autosize=1;strokeColor=none;fillColor=none;fontFamily=Courier New;" parent="NkeJhz0N6dfDDhDFCLCe-1" vertex="1">
          <mxGeometry x="785" y="290" width="150" height="30" as="geometry" />
        </mxCell>
        <mxCell id="NkeJhz0N6dfDDhDFCLCe-59" value="CloudStorage" style="whiteSpace=wrap;html=1;fontFamily=Courier New;fillColor=#fff2cc;strokeColor=#d6b656;rounded=1;" parent="NkeJhz0N6dfDDhDFCLCe-1" vertex="1">
          <mxGeometry x="110" y="540" width="120" height="60" as="geometry" />
        </mxCell>
        <mxCell id="NkeJhz0N6dfDDhDFCLCe-60" value="" style="html=1;verticalAlign=bottom;labelBackgroundColor=none;endArrow=block;endFill=1;fontFamily=Courier New;fillColor=#ffe6cc;strokeColor=#000000;" parent="NkeJhz0N6dfDDhDFCLCe-1" edge="1">
          <mxGeometry width="160" relative="1" as="geometry">
            <mxPoint x="160" y="470" as="sourcePoint" />
            <mxPoint x="160" y="490" as="targetPoint" />
            <Array as="points">
              <mxPoint x="160" y="480" />
            </Array>
          </mxGeometry>
        </mxCell>
        <mxCell id="NkeJhz0N6dfDDhDFCLCe-61" value="&lt;font color=&quot;#994c00&quot;&gt;7.3.a: remove(file_path)&lt;/font&gt;" style="text;html=1;align=center;verticalAlign=middle;resizable=0;points=[];autosize=1;strokeColor=none;fillColor=none;fontFamily=Courier New;" parent="NkeJhz0N6dfDDhDFCLCe-1" vertex="1">
          <mxGeometry x="185" y="470" width="200" height="30" as="geometry" />
        </mxCell>
        <mxCell id="NkeJhz0N6dfDDhDFCLCe-62" value="" style="html=1;verticalAlign=bottom;labelBackgroundColor=none;endArrow=open;endFill=0;fontFamily=Courier New;fillColor=#ffe6cc;strokeColor=#000000;" parent="NkeJhz0N6dfDDhDFCLCe-1" edge="1">
          <mxGeometry width="160" relative="1" as="geometry">
            <mxPoint x="935" y="210" as="sourcePoint" />
            <mxPoint x="915" y="210" as="targetPoint" />
          </mxGeometry>
        </mxCell>
        <mxCell id="NkeJhz0N6dfDDhDFCLCe-63" value="" style="html=1;verticalAlign=bottom;labelBackgroundColor=none;endArrow=block;endFill=1;fontFamily=Courier New;fillColor=#ffe6cc;strokeColor=#000000;" parent="NkeJhz0N6dfDDhDFCLCe-1" edge="1">
          <mxGeometry width="160" relative="1" as="geometry">
            <mxPoint x="915" y="190" as="sourcePoint" />
            <mxPoint x="935" y="190" as="targetPoint" />
            <Array as="points">
              <mxPoint x="925" y="190" />
            </Array>
          </mxGeometry>
        </mxCell>
        <mxCell id="x14tjh0kcX-GvqdJjO_F-0" value="Local File System" style="whiteSpace=wrap;html=1;fillColor=#b1ddf0;strokeColor=#10739e;rounded=1;" parent="NkeJhz0N6dfDDhDFCLCe-1" vertex="1">
          <mxGeometry x="400" y="360" width="120" height="60" as="geometry" />
        </mxCell>
        <mxCell id="6V2IJUkuNfI9JMHAixac-0" value="DBConnector" style="whiteSpace=wrap;html=1;fontFamily=Courier New;fillColor=#fff2cc;strokeColor=#d6b656;rounded=1;" vertex="1" parent="NkeJhz0N6dfDDhDFCLCe-1">
          <mxGeometry x="-120" y="360" width="120" height="60" as="geometry" />
        </mxCell>
        <mxCell id="sJ1y9Nnf4sJ3bKg1Gwyc-0" value="&lt;font color=&quot;#994c00&quot;&gt;7.1: get(f_id)&lt;/font&gt;" style="text;html=1;align=center;verticalAlign=middle;resizable=0;points=[];autosize=1;strokeColor=none;fillColor=none;fontFamily=Courier New;" vertex="1" parent="NkeJhz0N6dfDDhDFCLCe-1">
          <mxGeometry x="-5" y="300" width="120" height="30" as="geometry" />
        </mxCell>
        <mxCell id="63TxYE6NmR39zae-jOvz-0" value="" style="html=1;verticalAlign=bottom;labelBackgroundColor=none;endArrow=block;endFill=1;fontFamily=Courier New;fillColor=#ffe6cc;strokeColor=#000000;" edge="1" parent="NkeJhz0N6dfDDhDFCLCe-1">
          <mxGeometry width="160" relative="1" as="geometry">
            <mxPoint x="45" y="380" as="sourcePoint" />
            <mxPoint x="65" y="380" as="targetPoint" />
          </mxGeometry>
        </mxCell>
        <mxCell id="63TxYE6NmR39zae-jOvz-1" value="" style="html=1;verticalAlign=bottom;labelBackgroundColor=none;endArrow=open;endFill=0;fontFamily=Courier New;fillColor=#ffe6cc;strokeColor=#000000;" edge="1" parent="NkeJhz0N6dfDDhDFCLCe-1">
          <mxGeometry width="160" relative="1" as="geometry">
            <mxPoint x="65" y="404.76" as="sourcePoint" />
            <mxPoint x="45" y="404.76" as="targetPoint" />
          </mxGeometry>
        </mxCell>
        <mxCell id="dWU6vepy2abNg7feFbS3-0" value="&lt;font color=&quot;#3399ff&quot;&gt;7.2: file_path&lt;/font&gt;" style="text;html=1;align=center;verticalAlign=middle;resizable=0;points=[];autosize=1;strokeColor=none;fillColor=none;fontFamily=Courier New;" vertex="1" parent="NkeJhz0N6dfDDhDFCLCe-1">
          <mxGeometry x="-5" y="420" width="120" height="30" as="geometry" />
        </mxCell>
        <mxCell id="8p1Mt8WB3PfbGR-l5bpY-0" value="&lt;font color=&quot;#994c00&quot;&gt;7.3.b: delete(f_id)&lt;/font&gt;" style="text;html=1;align=center;verticalAlign=middle;resizable=0;points=[];autosize=1;strokeColor=none;fillColor=none;fontFamily=Courier New;" vertex="1" parent="NkeJhz0N6dfDDhDFCLCe-1">
          <mxGeometry x="-10" y="330" width="160" height="30" as="geometry" />
        </mxCell>
      </root>
    </mxGraphModel>
  </diagram>
  <diagram id="LViKpopdw8tyi-CgAyVc" name="add-sequence">
    <mxGraphModel dx="1166" dy="814" grid="1" gridSize="10" guides="1" tooltips="1" connect="1" arrows="1" fold="1" page="1" pageScale="1" pageWidth="1200" pageHeight="1600" math="0" shadow="0">
      <root>
        <mxCell id="0" />
        <mxCell id="1" parent="0" />
        <mxCell id="Mfu1w3qKzjOKxikHs8Gd-54" value=":Server" style="shape=umlLifeline;perimeter=lifelinePerimeter;whiteSpace=wrap;html=1;container=1;dropTarget=0;collapsible=0;recursiveResize=0;outlineConnect=0;portConstraint=eastwest;newEdgeStyle={&quot;edgeStyle&quot;:&quot;elbowEdgeStyle&quot;,&quot;elbow&quot;:&quot;vertical&quot;,&quot;curved&quot;:0,&quot;rounded&quot;:0};fillColor=#b1ddf0;strokeColor=#10739e;" parent="1" vertex="1">
          <mxGeometry x="220" y="80" width="100" height="390" as="geometry" />
        </mxCell>
        <mxCell id="Mfu1w3qKzjOKxikHs8Gd-55" value="" style="html=1;points=[];perimeter=orthogonalPerimeter;outlineConnect=0;targetShapes=umlLifeline;portConstraint=eastwest;newEdgeStyle={&quot;edgeStyle&quot;:&quot;elbowEdgeStyle&quot;,&quot;elbow&quot;:&quot;vertical&quot;,&quot;curved&quot;:0,&quot;rounded&quot;:0};fillColor=#b1ddf0;strokeColor=#10739e;" parent="Mfu1w3qKzjOKxikHs8Gd-54" vertex="1">
          <mxGeometry x="45" y="80" width="10" height="310" as="geometry" />
        </mxCell>
        <mxCell id="A2R0drPdWFzG-Ddy5Gft-1" value="loop" style="shape=umlFrame;whiteSpace=wrap;html=1;" parent="1" vertex="1">
          <mxGeometry x="1510" y="410" width="240" height="100" as="geometry" />
        </mxCell>
        <mxCell id="A2R0drPdWFzG-Ddy5Gft-2" value=":Client" style="shape=umlLifeline;perimeter=lifelinePerimeter;whiteSpace=wrap;html=1;container=1;dropTarget=0;collapsible=0;recursiveResize=0;outlineConnect=0;portConstraint=eastwest;newEdgeStyle={&quot;edgeStyle&quot;:&quot;elbowEdgeStyle&quot;,&quot;elbow&quot;:&quot;vertical&quot;,&quot;curved&quot;:0,&quot;rounded&quot;:0};fillColor=#8EE8E5;strokeColor=#82b366;" parent="1" vertex="1">
          <mxGeometry x="400" y="80" width="100" height="390" as="geometry" />
        </mxCell>
        <mxCell id="A2R0drPdWFzG-Ddy5Gft-3" value="" style="html=1;points=[];perimeter=orthogonalPerimeter;outlineConnect=0;targetShapes=umlLifeline;portConstraint=eastwest;newEdgeStyle={&quot;edgeStyle&quot;:&quot;elbowEdgeStyle&quot;,&quot;elbow&quot;:&quot;vertical&quot;,&quot;curved&quot;:0,&quot;rounded&quot;:0};fillColor=#b0e3e6;strokeColor=#0e8088;" parent="A2R0drPdWFzG-Ddy5Gft-2" vertex="1">
          <mxGeometry x="45" y="80" width="10" height="310" as="geometry" />
        </mxCell>
        <mxCell id="A2R0drPdWFzG-Ddy5Gft-4" value="Generate" style="shape=umlLifeline;perimeter=lifelinePerimeter;whiteSpace=wrap;html=1;container=1;dropTarget=0;collapsible=0;recursiveResize=0;outlineConnect=0;portConstraint=eastwest;newEdgeStyle={&quot;edgeStyle&quot;:&quot;elbowEdgeStyle&quot;,&quot;elbow&quot;:&quot;vertical&quot;,&quot;curved&quot;:0,&quot;rounded&quot;:0};fillColor=#fff2cc;strokeColor=#d6b656;" parent="1" vertex="1">
          <mxGeometry x="540" y="80" width="100" height="260" as="geometry" />
        </mxCell>
        <mxCell id="A2R0drPdWFzG-Ddy5Gft-5" value="" style="html=1;points=[];perimeter=orthogonalPerimeter;outlineConnect=0;targetShapes=umlLifeline;portConstraint=eastwest;newEdgeStyle={&quot;edgeStyle&quot;:&quot;elbowEdgeStyle&quot;,&quot;elbow&quot;:&quot;vertical&quot;,&quot;curved&quot;:0,&quot;rounded&quot;:0};fillColor=#f9f7ed;strokeColor=#36393d;" parent="A2R0drPdWFzG-Ddy5Gft-4" vertex="1">
          <mxGeometry x="45" y="120" width="10" height="80" as="geometry" />
        </mxCell>
        <mxCell id="A2R0drPdWFzG-Ddy5Gft-6" value="&lt;font style=&quot;font-size: 9px;&quot;&gt;&lt;i&gt;2. get_keys&lt;/i&gt;&lt;/font&gt;" style="html=1;verticalAlign=bottom;endArrow=block;edgeStyle=elbowEdgeStyle;elbow=vertical;curved=0;rounded=0;" parent="1" target="A2R0drPdWFzG-Ddy5Gft-5" edge="1">
          <mxGeometry relative="1" as="geometry">
            <mxPoint x="450" y="200" as="sourcePoint" />
          </mxGeometry>
        </mxCell>
        <mxCell id="A2R0drPdWFzG-Ddy5Gft-7" value="&lt;i&gt;&lt;font style=&quot;font-size: 8px;&quot;&gt;2.1. return k1, k2, k3, [k4]&lt;/font&gt;&lt;/i&gt;" style="html=1;verticalAlign=bottom;endArrow=open;dashed=1;endSize=8;edgeStyle=elbowEdgeStyle;elbow=vertical;curved=0;rounded=0;" parent="1" source="A2R0drPdWFzG-Ddy5Gft-5" edge="1">
          <mxGeometry relative="1" as="geometry">
            <mxPoint x="450" y="275" as="targetPoint" />
            <Array as="points">
              <mxPoint x="460" y="275" />
            </Array>
          </mxGeometry>
        </mxCell>
        <mxCell id="A2R0drPdWFzG-Ddy5Gft-8" value="&lt;font style=&quot;font-size: 12px;&quot;&gt;: SecretKeyEnc&lt;/font&gt;" style="shape=umlLifeline;perimeter=lifelinePerimeter;whiteSpace=wrap;html=1;container=1;dropTarget=0;collapsible=0;recursiveResize=0;outlineConnect=0;portConstraint=eastwest;newEdgeStyle={&quot;edgeStyle&quot;:&quot;elbowEdgeStyle&quot;,&quot;elbow&quot;:&quot;vertical&quot;,&quot;curved&quot;:0,&quot;rounded&quot;:0};fillColor=#f5f5f5;strokeColor=#666666;fontColor=#333333;" parent="1" vertex="1">
          <mxGeometry x="710" y="80" width="100" height="700" as="geometry" />
        </mxCell>
        <mxCell id="A2R0drPdWFzG-Ddy5Gft-9" value="" style="html=1;points=[];perimeter=orthogonalPerimeter;outlineConnect=0;targetShapes=umlLifeline;portConstraint=eastwest;newEdgeStyle={&quot;edgeStyle&quot;:&quot;elbowEdgeStyle&quot;,&quot;elbow&quot;:&quot;vertical&quot;,&quot;curved&quot;:0,&quot;rounded&quot;:0};fillColor=#eeeeee;strokeColor=#36393d;" parent="A2R0drPdWFzG-Ddy5Gft-8" vertex="1">
          <mxGeometry x="45" y="210" width="10" height="460" as="geometry" />
        </mxCell>
        <mxCell id="A2R0drPdWFzG-Ddy5Gft-10" value="&lt;font size=&quot;1&quot;&gt;&lt;i&gt;3. &amp;lt;&amp;lt;create&amp;gt;&amp;gt;&lt;/i&gt;&lt;/font&gt;" style="html=1;verticalAlign=bottom;endArrow=block;edgeStyle=elbowEdgeStyle;elbow=vertical;curved=0;rounded=0;dashed=1;" parent="1" source="A2R0drPdWFzG-Ddy5Gft-3" target="A2R0drPdWFzG-Ddy5Gft-8" edge="1">
          <mxGeometry x="0.4122" y="10" width="80" relative="1" as="geometry">
            <mxPoint x="460" y="290" as="sourcePoint" />
            <mxPoint x="540" y="290" as="targetPoint" />
            <Array as="points">
              <mxPoint x="610" y="310" />
              <mxPoint x="460" y="290" />
            </Array>
            <mxPoint x="-1" as="offset" />
          </mxGeometry>
        </mxCell>
        <mxCell id="A2R0drPdWFzG-Ddy5Gft-11" value=":TokenFactory" style="shape=umlLifeline;perimeter=lifelinePerimeter;whiteSpace=wrap;html=1;container=1;dropTarget=0;collapsible=0;recursiveResize=0;outlineConnect=0;portConstraint=eastwest;newEdgeStyle={&quot;edgeStyle&quot;:&quot;elbowEdgeStyle&quot;,&quot;elbow&quot;:&quot;vertical&quot;,&quot;curved&quot;:0,&quot;rounded&quot;:0};fillColor=#FFCCCC;strokeColor=#36393d;" parent="1" vertex="1">
          <mxGeometry x="1030" y="80" width="100" height="840" as="geometry" />
        </mxCell>
        <mxCell id="A2R0drPdWFzG-Ddy5Gft-12" value="" style="html=1;points=[];perimeter=orthogonalPerimeter;outlineConnect=0;targetShapes=umlLifeline;portConstraint=eastwest;newEdgeStyle={&quot;edgeStyle&quot;:&quot;elbowEdgeStyle&quot;,&quot;elbow&quot;:&quot;vertical&quot;,&quot;curved&quot;:0,&quot;rounded&quot;:0};fillColor=#ffe6cc;strokeColor=#d79b00;" parent="A2R0drPdWFzG-Ddy5Gft-11" vertex="1">
          <mxGeometry x="45" y="250" width="10" height="560" as="geometry" />
        </mxCell>
        <mxCell id="A2R0drPdWFzG-Ddy5Gft-13" value="&lt;i&gt;&lt;font style=&quot;font-size: 9px;&quot;&gt;&amp;lt;&amp;lt;create&amp;gt;&amp;gt;&lt;/font&gt;&lt;/i&gt;" style="html=1;verticalAlign=bottom;endArrow=block;edgeStyle=elbowEdgeStyle;elbow=vertical;curved=0;rounded=0;" parent="1" source="A2R0drPdWFzG-Ddy5Gft-3" target="A2R0drPdWFzG-Ddy5Gft-11" edge="1">
          <mxGeometry x="-0.8559" y="10" width="80" relative="1" as="geometry">
            <mxPoint x="610" y="440" as="sourcePoint" />
            <mxPoint x="690" y="440" as="targetPoint" />
            <Array as="points">
              <mxPoint x="720" y="360" />
            </Array>
            <mxPoint as="offset" />
          </mxGeometry>
        </mxCell>
        <mxCell id="A2R0drPdWFzG-Ddy5Gft-14" value="" style="shape=umlDestroy;dashed=0;targetShapes=umlLifeline;" parent="1" vertex="1">
          <mxGeometry x="580" y="330" width="20" height="20" as="geometry" />
        </mxCell>
        <mxCell id="A2R0drPdWFzG-Ddy5Gft-15" value="&lt;font size=&quot;1&quot;&gt;&lt;i&gt;get_add_t(f_id, file, encode_dir)&lt;/i&gt;&lt;/font&gt;" style="html=1;verticalAlign=bottom;endArrow=block;edgeStyle=elbowEdgeStyle;elbow=vertical;curved=0;rounded=0;" parent="1" target="A2R0drPdWFzG-Ddy5Gft-11" edge="1">
          <mxGeometry x="-0.3963" y="10" width="80" relative="1" as="geometry">
            <mxPoint x="450" y="410" as="sourcePoint" />
            <mxPoint x="690" y="410" as="targetPoint" />
            <Array as="points">
              <mxPoint x="565" y="410" />
            </Array>
            <mxPoint as="offset" />
          </mxGeometry>
        </mxCell>
        <mxCell id="A2R0drPdWFzG-Ddy5Gft-16" value="FileTools" style="shape=umlLifeline;perimeter=lifelinePerimeter;whiteSpace=wrap;html=1;container=1;dropTarget=0;collapsible=0;recursiveResize=0;outlineConnect=0;portConstraint=eastwest;newEdgeStyle={&quot;edgeStyle&quot;:&quot;elbowEdgeStyle&quot;,&quot;elbow&quot;:&quot;vertical&quot;,&quot;curved&quot;:0,&quot;rounded&quot;:0};fillColor=#e1d5e7;strokeColor=#9673a6;" parent="1" vertex="1">
          <mxGeometry x="1450" y="80" width="100" height="800" as="geometry" />
        </mxCell>
        <mxCell id="A2R0drPdWFzG-Ddy5Gft-17" value="" style="html=1;points=[];perimeter=orthogonalPerimeter;outlineConnect=0;targetShapes=umlLifeline;portConstraint=eastwest;newEdgeStyle={&quot;edgeStyle&quot;:&quot;elbowEdgeStyle&quot;,&quot;elbow&quot;:&quot;vertical&quot;,&quot;curved&quot;:0,&quot;rounded&quot;:0};fillColor=#E5CCFF;" parent="A2R0drPdWFzG-Ddy5Gft-16" vertex="1">
          <mxGeometry x="45" y="340" width="10" height="90" as="geometry" />
        </mxCell>
        <mxCell id="A2R0drPdWFzG-Ddy5Gft-18" value="PRF" style="shape=umlLifeline;perimeter=lifelinePerimeter;whiteSpace=wrap;html=1;container=1;dropTarget=0;collapsible=0;recursiveResize=0;outlineConnect=0;portConstraint=eastwest;newEdgeStyle={&quot;edgeStyle&quot;:&quot;elbowEdgeStyle&quot;,&quot;elbow&quot;:&quot;vertical&quot;,&quot;curved&quot;:0,&quot;rounded&quot;:0};fillColor=#d5e8d4;strokeColor=#82b366;" parent="1" vertex="1">
          <mxGeometry x="1220" y="80" width="100" height="840" as="geometry" />
        </mxCell>
        <mxCell id="A2R0drPdWFzG-Ddy5Gft-19" value="" style="html=1;points=[];perimeter=orthogonalPerimeter;outlineConnect=0;targetShapes=umlLifeline;portConstraint=eastwest;newEdgeStyle={&quot;edgeStyle&quot;:&quot;elbowEdgeStyle&quot;,&quot;elbow&quot;:&quot;vertical&quot;,&quot;curved&quot;:0,&quot;rounded&quot;:0};fillColor=#CCFF99;" parent="A2R0drPdWFzG-Ddy5Gft-18" vertex="1">
          <mxGeometry x="45" y="360" width="10" height="60" as="geometry" />
        </mxCell>
        <mxCell id="A2R0drPdWFzG-Ddy5Gft-20" value="" style="html=1;verticalAlign=bottom;labelBackgroundColor=none;endArrow=block;endFill=1;entryX=0.5;entryY=0;entryDx=0;entryDy=0;entryPerimeter=0;" parent="1" source="A2R0drPdWFzG-Ddy5Gft-12" target="A2R0drPdWFzG-Ddy5Gft-19" edge="1">
          <mxGeometry width="160" relative="1" as="geometry">
            <mxPoint x="1090" y="440" as="sourcePoint" />
            <mxPoint x="1250" y="440" as="targetPoint" />
            <Array as="points">
              <mxPoint x="1100" y="440" />
              <mxPoint x="1250" y="440" />
            </Array>
          </mxGeometry>
        </mxCell>
        <mxCell id="A2R0drPdWFzG-Ddy5Gft-21" value="get_file_hashes" style="text;align=center;verticalAlign=middle;dashed=0;fontSize=9;fontStyle=2" parent="1" vertex="1">
          <mxGeometry x="1105" y="410" width="140" height="40" as="geometry" />
        </mxCell>
        <mxCell id="A2R0drPdWFzG-Ddy5Gft-24" value="" style="html=1;points=[];perimeter=orthogonalPerimeter;fontSize=9;fillColor=#ffcc99;strokeColor=#36393d;" parent="1" vertex="1">
          <mxGeometry x="1080" y="690" width="10" height="40" as="geometry" />
        </mxCell>
        <mxCell id="A2R0drPdWFzG-Ddy5Gft-26" value="&lt;font style=&quot;font-size: 12px;&quot;&gt;local file system&lt;/font&gt;" style="shape=cylinder3;whiteSpace=wrap;html=1;boundedLbl=1;backgroundOutline=1;size=15;fillColor=#66B2FF;" parent="1" vertex="1">
          <mxGeometry x="1700" y="60" width="70" height="90" as="geometry" />
        </mxCell>
        <mxCell id="A2R0drPdWFzG-Ddy5Gft-27" value="" style="html=1;verticalAlign=bottom;labelBackgroundColor=none;endArrow=block;endFill=1;" parent="1" source="A2R0drPdWFzG-Ddy5Gft-17" edge="1">
          <mxGeometry width="160" relative="1" as="geometry">
            <mxPoint x="1510" y="450" as="sourcePoint" />
            <mxPoint x="1730" y="450" as="targetPoint" />
          </mxGeometry>
        </mxCell>
        <mxCell id="A2R0drPdWFzG-Ddy5Gft-28" value="" style="endArrow=none;dashed=1;html=1;fontSize=12;entryX=0.5;entryY=1;entryDx=0;entryDy=0;entryPerimeter=0;startArrow=none;" parent="1" target="A2R0drPdWFzG-Ddy5Gft-26" edge="1">
          <mxGeometry width="50" height="50" relative="1" as="geometry">
            <mxPoint x="1735" y="320" as="sourcePoint" />
            <mxPoint x="1480" y="250" as="targetPoint" />
            <Array as="points" />
          </mxGeometry>
        </mxCell>
        <mxCell id="A2R0drPdWFzG-Ddy5Gft-29" value="" style="html=1;verticalAlign=bottom;labelBackgroundColor=none;endArrow=open;endFill=0;dashed=1;fontSize=12;" parent="1" source="A2R0drPdWFzG-Ddy5Gft-51" edge="1">
          <mxGeometry width="160" relative="1" as="geometry">
            <mxPoint x="1670" y="490" as="sourcePoint" />
            <mxPoint x="1510" y="490" as="targetPoint" />
          </mxGeometry>
        </mxCell>
        <mxCell id="A2R0drPdWFzG-Ddy5Gft-30" value="" style="html=1;verticalAlign=bottom;labelBackgroundColor=none;endArrow=block;endFill=1;" parent="1" edge="1">
          <mxGeometry width="160" relative="1" as="geometry">
            <mxPoint x="1275" y="460" as="sourcePoint" />
            <mxPoint x="1500" y="460" as="targetPoint" />
          </mxGeometry>
        </mxCell>
        <mxCell id="A2R0drPdWFzG-Ddy5Gft-31" value="open, read_chunk" style="text;align=center;verticalAlign=middle;dashed=0;fontSize=9;fontStyle=2" parent="1" vertex="1">
          <mxGeometry x="1340" y="430" width="140" height="40" as="geometry" />
        </mxCell>
        <mxCell id="A2R0drPdWFzG-Ddy5Gft-32" value="" style="html=1;points=[];perimeter=orthogonalPerimeter;fontSize=12;fillColor=#E5CCFF;" parent="1" vertex="1">
          <mxGeometry x="1495" y="550" width="10" height="60" as="geometry" />
        </mxCell>
        <mxCell id="A2R0drPdWFzG-Ddy5Gft-33" value="" style="html=1;verticalAlign=bottom;labelBackgroundColor=none;endArrow=block;endFill=1;" parent="1" target="A2R0drPdWFzG-Ddy5Gft-32" edge="1">
          <mxGeometry width="160" relative="1" as="geometry">
            <mxPoint x="1090" y="560" as="sourcePoint" />
            <mxPoint x="1265" y="610" as="targetPoint" />
            <Array as="points">
              <mxPoint x="1290" y="560" />
            </Array>
          </mxGeometry>
        </mxCell>
        <mxCell id="A2R0drPdWFzG-Ddy5Gft-34" value="tokenize_text_file" style="text;align=center;verticalAlign=middle;dashed=0;fontSize=9;fontStyle=2" parent="1" vertex="1">
          <mxGeometry x="1105" y="530" width="140" height="30" as="geometry" />
        </mxCell>
        <mxCell id="A2R0drPdWFzG-Ddy5Gft-35" value="" style="html=1;verticalAlign=bottom;labelBackgroundColor=none;endArrow=block;endFill=1;dashed=1;fontSize=12;" parent="1" source="A2R0drPdWFzG-Ddy5Gft-17" edge="1">
          <mxGeometry width="160" relative="1" as="geometry">
            <mxPoint x="1490" y="490" as="sourcePoint" />
            <mxPoint x="1275" y="490" as="targetPoint" />
          </mxGeometry>
        </mxCell>
        <mxCell id="A2R0drPdWFzG-Ddy5Gft-36" value="" style="html=1;verticalAlign=bottom;labelBackgroundColor=none;endArrow=block;endFill=1;dashed=1;fontSize=12;" parent="1" edge="1">
          <mxGeometry width="160" relative="1" as="geometry">
            <mxPoint x="1260" y="490" as="sourcePoint" />
            <mxPoint x="1080" y="490" as="targetPoint" />
          </mxGeometry>
        </mxCell>
        <mxCell id="A2R0drPdWFzG-Ddy5Gft-37" value="&lt;i style=&quot;border-color: var(--border-color); font-size: 11px;&quot;&gt;&lt;font style=&quot;border-color: var(--border-color); font-size: 8px;&quot;&gt;1.2: return&amp;nbsp; f_f, g_f, p_f&lt;/font&gt;&lt;/i&gt;" style="edgeLabel;html=1;align=center;verticalAlign=middle;resizable=0;points=[];fontSize=12;" parent="A2R0drPdWFzG-Ddy5Gft-36" vertex="1" connectable="0">
          <mxGeometry x="0.0848" y="-1" relative="1" as="geometry">
            <mxPoint x="13" y="-9" as="offset" />
          </mxGeometry>
        </mxCell>
        <mxCell id="A2R0drPdWFzG-Ddy5Gft-38" value="" style="html=1;verticalAlign=bottom;labelBackgroundColor=none;endArrow=block;endFill=1;dashed=1;fontSize=12;exitX=0.036;exitY=0.617;exitDx=0;exitDy=0;exitPerimeter=0;" parent="1" source="A2R0drPdWFzG-Ddy5Gft-32" target="A2R0drPdWFzG-Ddy5Gft-12" edge="1">
          <mxGeometry width="160" relative="1" as="geometry">
            <mxPoint x="1390" y="630" as="sourcePoint" />
            <mxPoint x="1090" y="639" as="targetPoint" />
          </mxGeometry>
        </mxCell>
        <mxCell id="A2R0drPdWFzG-Ddy5Gft-39" value="" style="html=1;verticalAlign=bottom;labelBackgroundColor=none;endArrow=block;endFill=1;fontSize=12;" parent="1" source="A2R0drPdWFzG-Ddy5Gft-12" target="A2R0drPdWFzG-Ddy5Gft-9" edge="1">
          <mxGeometry width="160" relative="1" as="geometry">
            <mxPoint x="1070" y="700" as="sourcePoint" />
            <mxPoint x="920" y="700" as="targetPoint" />
            <Array as="points">
              <mxPoint x="990" y="620" />
            </Array>
          </mxGeometry>
        </mxCell>
        <mxCell id="A2R0drPdWFzG-Ddy5Gft-41" value="" style="html=1;points=[];perimeter=orthogonalPerimeter;outlineConnect=0;targetShapes=umlLifeline;portConstraint=eastwest;newEdgeStyle={&quot;edgeStyle&quot;:&quot;elbowEdgeStyle&quot;,&quot;elbow&quot;:&quot;vertical&quot;,&quot;curved&quot;:0,&quot;rounded&quot;:0};fillColor=#CCFF99;" parent="1" vertex="1">
          <mxGeometry x="1265" y="695" width="10" height="35" as="geometry" />
        </mxCell>
        <mxCell id="A2R0drPdWFzG-Ddy5Gft-42" value="" style="html=1;verticalAlign=bottom;labelBackgroundColor=none;endArrow=block;endFill=1;fontSize=12;" parent="1" target="A2R0drPdWFzG-Ddy5Gft-41" edge="1">
          <mxGeometry width="160" relative="1" as="geometry">
            <mxPoint x="1090" y="700" as="sourcePoint" />
            <mxPoint x="1260" y="700" as="targetPoint" />
          </mxGeometry>
        </mxCell>
        <mxCell id="A2R0drPdWFzG-Ddy5Gft-43" value="" style="html=1;verticalAlign=bottom;labelBackgroundColor=none;endArrow=block;endFill=1;dashed=1;fontSize=12;entryX=0.926;entryY=0.863;entryDx=0;entryDy=0;entryPerimeter=0;" parent="1" source="A2R0drPdWFzG-Ddy5Gft-41" target="A2R0drPdWFzG-Ddy5Gft-24" edge="1">
          <mxGeometry width="160" relative="1" as="geometry">
            <mxPoint x="1260" y="725" as="sourcePoint" />
            <mxPoint x="1095" y="724.52" as="targetPoint" />
          </mxGeometry>
        </mxCell>
        <mxCell id="A2R0drPdWFzG-Ddy5Gft-44" value="&lt;span style=&quot;font-size: 9px; font-style: italic;&quot;&gt;get_word_hashes&lt;/span&gt;" style="text;html=1;align=center;verticalAlign=middle;resizable=0;points=[];autosize=1;strokeColor=none;fillColor=none;fontSize=12;" parent="1" vertex="1">
          <mxGeometry x="1165" y="680" width="90" height="30" as="geometry" />
        </mxCell>
        <mxCell id="A2R0drPdWFzG-Ddy5Gft-45" value="" style="html=1;verticalAlign=bottom;labelBackgroundColor=none;endArrow=block;endFill=1;fontSize=12;entryX=-0.001;entryY=0.485;entryDx=0;entryDy=0;entryPerimeter=0;" parent="1" target="A2R0drPdWFzG-Ddy5Gft-47" edge="1">
          <mxGeometry width="160" relative="1" as="geometry">
            <mxPoint x="1085" y="350" as="sourcePoint" />
            <mxPoint x="1720" y="350" as="targetPoint" />
          </mxGeometry>
        </mxCell>
        <mxCell id="A2R0drPdWFzG-Ddy5Gft-46" value="" style="endArrow=none;dashed=1;html=1;fontSize=12;entryX=0.5;entryY=1;entryDx=0;entryDy=0;entryPerimeter=0;" parent="1" target="A2R0drPdWFzG-Ddy5Gft-47" edge="1">
          <mxGeometry width="50" height="50" relative="1" as="geometry">
            <mxPoint x="1740" y="820" as="sourcePoint" />
            <mxPoint x="1734.9999999999998" y="150" as="targetPoint" />
            <Array as="points" />
          </mxGeometry>
        </mxCell>
        <mxCell id="A2R0drPdWFzG-Ddy5Gft-47" value="" style="html=1;points=[];perimeter=orthogonalPerimeter;fontSize=12;fillColor=#cce5ff;strokeColor=#36393d;" parent="1" vertex="1">
          <mxGeometry x="1730" y="320" width="10" height="60" as="geometry" />
        </mxCell>
        <mxCell id="A2R0drPdWFzG-Ddy5Gft-48" value="" style="html=1;points=[];perimeter=orthogonalPerimeter;fillColor=#ffcc99;strokeColor=#36393d;" parent="1" vertex="1">
          <mxGeometry x="1080" y="790" width="10" height="40" as="geometry" />
        </mxCell>
        <mxCell id="A2R0drPdWFzG-Ddy5Gft-49" value="make_free_lists" style="edgeStyle=orthogonalEdgeStyle;html=1;align=left;spacingLeft=2;endArrow=block;rounded=0;entryX=1;entryY=0;" parent="1" target="A2R0drPdWFzG-Ddy5Gft-48" edge="1">
          <mxGeometry relative="1" as="geometry">
            <mxPoint x="1085" y="770" as="sourcePoint" />
            <Array as="points">
              <mxPoint x="1115" y="770" />
            </Array>
          </mxGeometry>
        </mxCell>
        <mxCell id="A2R0drPdWFzG-Ddy5Gft-50" value="return" style="html=1;verticalAlign=bottom;endArrow=open;dashed=1;endSize=8;" parent="1" source="A2R0drPdWFzG-Ddy5Gft-8" edge="1">
          <mxGeometry x="0.1959" y="-20" relative="1" as="geometry">
            <mxPoint x="770" y="670" as="sourcePoint" />
            <mxPoint x="1740" y="660" as="targetPoint" />
            <Array as="points">
              <mxPoint x="910" y="660" />
            </Array>
            <mxPoint as="offset" />
          </mxGeometry>
        </mxCell>
        <mxCell id="A2R0drPdWFzG-Ddy5Gft-51" value="" style="html=1;points=[];perimeter=orthogonalPerimeter;outlineConnect=0;targetShapes=umlLifeline;portConstraint=eastwest;newEdgeStyle={&quot;edgeStyle&quot;:&quot;elbowEdgeStyle&quot;,&quot;elbow&quot;:&quot;vertical&quot;,&quot;curved&quot;:0,&quot;rounded&quot;:0};fillColor=#cce5ff;strokeColor=#36393d;" parent="1" vertex="1">
          <mxGeometry x="1730" y="450" width="10" height="50" as="geometry" />
        </mxCell>
        <mxCell id="A2R0drPdWFzG-Ddy5Gft-52" value="&lt;i style=&quot;border-color: var(--border-color); font-size: 11px;&quot;&gt;&lt;font style=&quot;border-color: var(--border-color); font-size: 8px;&quot;&gt;1.2: return&amp;nbsp; f_w, g_w, p_w&lt;/font&gt;&lt;/i&gt;" style="edgeLabel;html=1;align=center;verticalAlign=middle;resizable=0;points=[];fontSize=12;" parent="1" vertex="1" connectable="0">
          <mxGeometry x="1210" y="740" as="geometry" />
        </mxCell>
        <mxCell id="A2R0drPdWFzG-Ddy5Gft-53" value="" style="shape=umlDestroy;dashed=0;fillColor=#8EE8E5;" parent="1" vertex="1">
          <mxGeometry x="310" y="780" width="40" height="40" as="geometry" />
        </mxCell>
        <mxCell id="A2R0drPdWFzG-Ddy5Gft-54" value=":RandOraracle" style="shape=umlLifeline;perimeter=lifelinePerimeter;whiteSpace=wrap;html=1;container=1;collapsible=0;recursiveResize=0;outlineConnect=0;fillColor=#76608a;fontColor=#ffffff;strokeColor=#432D57;" parent="1" vertex="1">
          <mxGeometry x="880" y="80" width="130" height="760" as="geometry" />
        </mxCell>
        <mxCell id="A2R0drPdWFzG-Ddy5Gft-55" value="" style="html=1;points=[];perimeter=orthogonalPerimeter;fillColor=#d0cee2;strokeColor=#56517e;" parent="A2R0drPdWFzG-Ddy5Gft-54" vertex="1">
          <mxGeometry x="45" y="608.5" width="10" height="43" as="geometry" />
        </mxCell>
        <mxCell id="A2R0drPdWFzG-Ddy5Gft-40" value="enc_file" style="text;html=1;align=center;verticalAlign=middle;resizable=0;points=[];autosize=1;strokeColor=none;fillColor=none;fontSize=12;" parent="A2R0drPdWFzG-Ddy5Gft-54" vertex="1">
          <mxGeometry x="70" y="515" width="60" height="30" as="geometry" />
        </mxCell>
        <mxCell id="A2R0drPdWFzG-Ddy5Gft-56" value="" style="html=1;verticalAlign=bottom;labelBackgroundColor=none;endArrow=block;endFill=1;dashed=1;fontSize=12;" parent="1" source="A2R0drPdWFzG-Ddy5Gft-55" target="A2R0drPdWFzG-Ddy5Gft-11" edge="1">
          <mxGeometry width="160" relative="1" as="geometry">
            <mxPoint x="940" y="720" as="sourcePoint" />
            <mxPoint x="1000" y="790" as="targetPoint" />
            <Array as="points">
              <mxPoint x="1010" y="720" />
            </Array>
          </mxGeometry>
        </mxCell>
        <mxCell id="A2R0drPdWFzG-Ddy5Gft-57" value="h_x" style="text;html=1;align=center;verticalAlign=middle;resizable=0;points=[];autosize=1;strokeColor=none;fillColor=none;" parent="1" vertex="1">
          <mxGeometry x="980" y="675" width="40" height="30" as="geometry" />
        </mxCell>
        <mxCell id="A2R0drPdWFzG-Ddy5Gft-58" value="h_val" style="text;html=1;align=center;verticalAlign=middle;resizable=0;points=[];autosize=1;strokeColor=none;fillColor=none;" parent="1" vertex="1">
          <mxGeometry x="980" y="720" width="50" height="30" as="geometry" />
        </mxCell>
        <mxCell id="A2R0drPdWFzG-Ddy5Gft-59" value="" style="html=1;verticalAlign=bottom;labelBackgroundColor=none;endArrow=block;endFill=1;exitX=0.165;exitY=0.257;exitDx=0;exitDy=0;exitPerimeter=0;" parent="1" source="A2R0drPdWFzG-Ddy5Gft-24" edge="1">
          <mxGeometry width="160" relative="1" as="geometry">
            <mxPoint x="1080" y="709.2" as="sourcePoint" />
            <mxPoint x="940" y="700" as="targetPoint" />
          </mxGeometry>
        </mxCell>
      </root>
    </mxGraphModel>
  </diagram>
</mxfile>
